<?xml version="1.0" standalone="no"?>
<!DOCTYPE svg PUBLIC "-//W3C//DTD SVG 20010904//EN"
 "http://www.w3.org/TR/2001/REC-SVG-20010904/DTD/svg10.dtd">
<svg version="1.0" xmlns="http://www.w3.org/2000/svg"
 width="1920.000000pt" height="1920.000000pt" viewBox="0 0 1920.000000 1920.000000"
 preserveAspectRatio="xMidYMid meet">

<g transform="translate(0.000000,1920.000000) scale(0.100000,-0.100000)"
fill="#000000" stroke="none">
<path d="M12351 18185 c-176 -75 -232 -149 -237 -314 -4 -112 -11 -122 -94
-145 -48 -14 -63 -23 -75 -46 -9 -18 -26 -32 -43 -36 -54 -12 -55 -12 -48 -49
9 -46 -5 -52 -140 -53 l-112 -1 -17 40 c-15 32 -23 39 -46 39 -24 0 -33 -8
-53 -48 -14 -27 -36 -53 -50 -60 -43 -19 -35 -57 16 -83 24 -12 49 -29 56 -38
17 -21 10 -120 -9 -131 -47 -28 -77 -60 -102 -109 -35 -71 -34 -97 3 -141 55
-65 30 -95 -85 -103 -38 -2 -98 -12 -132 -22 -52 -14 -67 -24 -84 -51 -14 -23
-28 -34 -44 -34 -24 0 -28 6 -40 68 -8 41 -26 49 -59 27 -20 -13 -26 -26 -26
-52 0 -30 6 -37 50 -65 49 -30 50 -32 50 -78 0 -42 -4 -52 -34 -76 -18 -16
-47 -37 -65 -46 -28 -16 -31 -21 -31 -66 0 -41 -4 -53 -29 -75 -19 -16 -33
-41 -37 -64 -4 -21 -20 -56 -35 -77 -33 -46 -39 -89 -12 -84 11 2 20 15 23 33
6 32 40 56 70 48 19 -5 35 -32 44 -75 8 -35 26 -35 56 -3 23 24 28 25 95 19
117 -12 187 -36 210 -72 11 -17 25 -31 30 -32 6 0 33 17 60 38 48 37 50 40 47
83 -3 52 4 89 19 89 6 0 25 -11 43 -25 61 -47 139 -50 187 -8 25 21 63 -1 98
-56 36 -56 75 -80 116 -72 52 11 184 -7 213 -28 19 -13 53 -21 117 -26 52 -3
112 -15 143 -27 29 -11 55 -18 58 -16 2 3 14 38 25 78 17 62 18 78 8 103 -11
26 -10 31 9 46 21 15 22 22 16 92 -11 130 -15 125 175 188 85 28 110 42 111
63 0 11 -53 45 -98 63 -31 13 -42 23 -42 38 0 24 65 87 89 87 18 0 61 58 61
82 0 9 12 30 26 48 20 23 25 38 21 59 -7 33 16 50 39 30 19 -15 34 -2 34 29 0
32 7 42 43 65 19 12 27 26 27 46 0 25 -5 30 -32 36 -18 4 -57 21 -87 37 -29
17 -83 41 -120 54 -60 21 -66 26 -69 53 -3 27 1 32 34 46 21 9 53 27 72 42 19
14 46 26 61 27 26 1 26 1 29 94 3 91 2 92 -23 102 -18 7 -25 17 -25 35 0 15
-7 33 -15 41 -8 8 -12 21 -9 29 4 10 0 15 -13 15 -11 0 -27 8 -36 18 -16 17
-16 23 -2 70 9 29 13 57 10 62 -11 18 -39 10 -75 -20 -22 -20 -45 -30 -66 -30
-58 0 -82 45 -70 128 18 125 19 158 1 175 -26 26 -61 20 -174 -28z"/>
<path d="M10442 16534 c-27 -23 -46 -50 -54 -76 -8 -28 -22 -47 -44 -60 -27
-16 -32 -25 -36 -69 -6 -61 -22 -79 -76 -86 -47 -6 -65 -23 -81 -74 -20 -63
-36 -70 -111 -54 -119 25 -155 -24 -81 -109 23 -26 41 -56 41 -68 0 -11 -15
-34 -34 -52 -18 -17 -41 -45 -50 -63 -31 -62 -17 -102 44 -127 44 -17 52 -30
54 -81 1 -23 10 -41 34 -63 50 -47 37 -117 -28 -156 -41 -24 -55 -20 -93 24
-39 46 -58 50 -77 16 -20 -38 -36 -38 -65 0 -37 49 -98 78 -144 68 -20 -4 -39
-7 -43 -6 -3 1 -28 -5 -55 -13 -72 -22 -118 -19 -170 12 l-46 27 -49 -54 c-36
-41 -48 -62 -48 -86 0 -23 5 -34 19 -39 32 -10 44 -31 31 -55 -14 -27 -2 -44
54 -72 23 -11 73 -53 113 -94 58 -60 77 -74 102 -74 30 0 53 -16 71 -51 14
-24 31 -24 81 1 31 16 50 19 89 14 44 -6 53 -4 80 20 38 31 42 32 58 5 9 -13
11 -35 6 -65 l-6 -44 30 6 c25 5 32 2 42 -17 11 -20 10 -25 -8 -37 l-22 -14
25 -30 c14 -16 25 -34 25 -40 0 -6 9 -3 19 6 31 29 45 15 47 -45 1 -30 11 -85
22 -124 22 -80 17 -110 -24 -125 -23 -9 -25 -14 -19 -43 10 -44 11 -45 40 -39
33 6 71 -20 80 -55 5 -23 2 -32 -21 -50 l-28 -22 42 -40 c46 -45 51 -61 25
-86 -21 -21 -106 -14 -134 11 -25 23 -85 8 -112 -28 -25 -34 -20 -41 20 -26
26 10 35 9 57 -5 37 -25 33 -52 -11 -74 -26 -12 -39 -26 -41 -42 -3 -20 0 -23
20 -18 12 3 73 17 133 31 227 54 412 86 482 84 62 -2 73 1 123 31 50 31 159
64 235 73 24 2 35 12 57 53 55 101 107 118 276 85 56 -11 111 -20 121 -20 11
0 61 32 113 71 101 77 98 76 214 53 26 -5 41 3 113 60 76 61 87 66 131 66 26
0 88 -13 138 -30 95 -31 157 -36 280 -24 l61 7 -6 44 c-5 38 -2 48 20 71 26
29 27 34 29 225 1 71 -1 80 -25 105 -31 32 -35 62 -9 62 10 0 27 7 38 15 18
15 18 15 -9 9 -19 -4 -34 -1 -46 10 -11 10 -45 19 -87 23 -57 5 -73 11 -94 33
-14 14 -33 29 -42 33 -26 10 -22 30 17 82 30 38 34 49 24 66 -13 26 10 64 53
87 17 10 39 25 49 34 10 9 27 22 39 28 18 10 21 17 15 46 -4 24 0 48 15 80 11
26 20 64 20 85 0 32 5 42 25 51 20 9 28 8 43 -5 13 -12 29 -15 53 -11 59 10
63 12 49 29 -10 13 -9 19 5 35 18 19 17 20 -8 20 -36 0 -34 22 4 54 25 22 38
25 65 20 33 -6 34 -5 34 24 0 38 19 45 69 27 44 -15 51 -12 51 22 0 17 6 23
20 23 12 0 32 12 45 26 24 26 45 25 45 -1 0 -14 45 -29 60 -20 6 4 10 24 10
46 0 31 -4 39 -18 39 -10 0 -22 4 -28 9 -5 6 -43 11 -84 13 l-75 4 -22 40
c-20 35 -28 40 -80 51 -91 19 -103 17 -114 -17 -14 -38 -34 -38 -54 0 -14 27
-91 89 -99 79 -1 -2 -11 -35 -21 -74 -25 -96 -25 -97 -90 -74 -30 10 -93 22
-141 25 -64 5 -99 14 -133 32 -40 21 -61 25 -156 27 -60 2 -113 3 -117 4 -4 1
-26 26 -49 56 -55 74 -71 81 -107 55 -25 -19 -37 -20 -91 -14 -46 5 -71 14
-93 32 -24 21 -31 23 -39 11 -11 -18 -11 -22 1 -53 6 -18 6 -34 -1 -49 -11
-24 -114 -97 -136 -97 -7 0 -19 16 -27 35 -13 29 -23 36 -71 51 -31 9 -81 18
-111 20 -30 2 -59 6 -64 9 -5 3 -25 -9 -45 -27 -44 -38 -63 -32 -79 27 -20 71
-64 74 -85 6 -12 -41 -30 -51 -60 -32 -10 6 -12 19 -7 44 5 29 0 47 -26 97
-18 34 -39 65 -48 68 -32 11 -49 36 -56 78 -7 47 -24 51 -24 6 -1 -32 -31 -95
-45 -94 -13 1 -33 68 -34 114 -1 58 -28 66 -79 22z"/>
<path d="M8070 15781 c-13 -25 -13 -70 1 -109 13 -39 -2 -70 -39 -78 -58 -12
-72 -22 -72 -53 0 -23 10 -38 46 -68 31 -26 57 -61 80 -108 18 -38 52 -92 74
-120 22 -27 40 -59 40 -70 0 -22 -19 -54 -55 -95 -21 -23 -22 -31 -15 -83 10
-69 19 -81 76 -107 51 -22 53 -32 23 -109 -19 -50 -19 -61 -8 -115 13 -63 16
-142 6 -153 -3 -3 -36 -9 -74 -13 -37 -5 -78 -12 -90 -16 -32 -9 -39 17 -18
62 19 41 14 64 -14 64 -23 0 -81 -46 -81 -65 0 -15 -33 -38 -70 -50 -14 -4
-44 -22 -68 -39 -41 -29 -45 -30 -70 -15 -20 11 -31 29 -41 67 -16 61 -40 73
-90 48 -17 -9 -51 -19 -76 -23 l-45 -6 6 -49 c4 -29 1 -79 -6 -118 -17 -89 -9
-114 45 -152 51 -36 65 -70 65 -160 l0 -58 93 0 c91 0 95 -1 131 -33 l38 -32
-25 -60 c-13 -33 -32 -86 -41 -119 l-17 -58 35 -84 35 -84 -23 -67 c-13 -38
-40 -101 -60 -140 -20 -40 -36 -78 -36 -85 0 -7 11 -26 24 -42 l23 -30 50 32
c28 18 73 39 102 47 28 8 73 21 100 29 l50 15 123 -78 123 -78 145 -13 145
-12 135 -72 c100 -52 136 -76 137 -91 1 -11 5 -49 8 -85 l6 -66 62 -41 c45
-29 80 -44 127 -52 36 -7 131 -28 211 -47 138 -33 149 -38 220 -90 88 -65 174
-107 200 -99 10 4 28 20 40 37 12 17 37 36 55 44 54 23 75 52 68 93 -9 51 -33
88 -66 102 -15 6 -33 18 -39 26 -16 18 -12 109 6 170 8 26 12 57 9 69 -4 17 1
25 22 36 22 10 28 20 29 43 0 28 2 30 35 27 53 -5 159 24 187 50 24 22 25 27
18 93 -4 39 -9 113 -10 164 -2 52 -9 132 -15 178 -11 74 -10 88 6 134 10 28
35 69 56 91 21 23 38 46 38 52 0 7 -13 17 -30 23 -26 10 -29 15 -24 41 8 40
-21 57 -82 48 -35 -4 -45 -2 -53 12 -14 26 8 64 48 83 31 14 32 17 16 32 -19
19 -33 21 -68 8 -13 -5 -30 -6 -37 -1 -21 13 20 72 65 94 40 18 40 18 77 -3
39 -22 112 -29 123 -11 11 18 -6 51 -31 60 -35 14 -42 55 -14 85 20 22 22 28
11 51 -10 23 -16 25 -52 22 -41 -3 -42 -3 -55 41 -15 53 -11 67 27 80 16 5 29
14 29 20 0 5 -9 49 -21 98 -12 48 -21 103 -21 121 0 37 -8 40 -33 12 -21 -23
-35 -18 -35 15 0 15 -10 31 -25 41 -30 20 -32 40 -5 49 19 6 26 25 14 38 -3 3
-17 1 -31 -6 -33 -15 -45 5 -38 60 9 60 -1 69 -41 38 -31 -24 -40 -26 -88 -20
-41 5 -59 3 -79 -9 -13 -9 -38 -18 -55 -21 -27 -3 -34 2 -52 31 -17 26 -28 34
-51 34 -22 0 -46 17 -106 76 -43 41 -102 89 -132 106 -52 30 -53 31 -47 68 5
35 4 39 -25 50 -24 11 -29 17 -25 35 8 32 -11 44 -82 51 -43 5 -66 3 -77 -6
-9 -8 -45 -13 -93 -13 -94 -1 -118 12 -157 87 -34 65 -79 116 -104 116 -9 0
-26 7 -37 15 -38 29 -63 19 -85 -32 -46 -111 -53 -113 -128 -35 l-59 62 -75 0
c-69 0 -77 2 -106 29 -22 20 -31 38 -31 60 0 25 -8 36 -40 57 -22 15 -40 31
-40 35 0 16 -19 9 -30 -10z"/>
<path d="M11934 14544 c-21 -15 -54 -39 -72 -55 -65 -57 -85 -62 -170 -38
l-42 12 -96 -73 c-108 -83 -107 -83 -253 -56 -158 30 -209 13 -260 -89 -20
-40 -26 -44 -69 -50 -89 -13 -167 -37 -227 -70 -69 -38 -86 -42 -137 -32 -26
6 -86 -3 -210 -28 -198 -41 -331 -73 -306 -74 23 -1 41 -37 34 -66 -5 -18 -1
-24 18 -29 41 -10 42 -42 2 -79 -19 -18 -46 -59 -60 -92 -24 -53 -25 -63 -16
-114 6 -31 13 -105 16 -166 3 -60 9 -143 14 -183 14 -102 15 -98 -34 -131 -38
-26 -57 -32 -130 -37 l-85 -7 5 -26 c5 -22 1 -29 -20 -39 -18 -8 -26 -19 -26
-38 0 -14 -7 -53 -16 -86 -23 -90 -17 -116 36 -153 33 -23 48 -43 60 -77 l16
-46 16 28 c11 20 30 32 58 40 58 16 311 141 375 186 17 12 53 29 80 39 28 10
54 22 60 27 5 4 21 8 36 8 14 0 37 8 50 18 13 10 73 43 133 73 59 30 130 73
156 96 l47 42 66 -6 c54 -5 75 -2 120 16 56 23 71 41 82 97 9 47 37 68 81 61
41 -7 111 7 162 32 36 17 37 20 20 56 -25 56 37 103 86 64 20 -16 23 -25 18
-70 -5 -49 -4 -51 16 -40 41 22 84 13 144 -30 39 -27 74 -43 106 -47 44 -7 49
-11 74 -57 21 -40 35 -53 70 -67 24 -9 59 -17 79 -17 20 -1 62 -10 95 -21 32
-11 64 -19 71 -18 7 2 -42 46 -108 98 -105 82 -179 162 -179 192 0 14 48 28
92 28 25 0 49 7 60 17 16 14 23 15 59 3 49 -16 88 -5 106 30 18 36 42 50 85
50 34 0 38 3 38 25 0 19 -10 31 -35 46 -19 12 -35 23 -35 26 0 11 46 42 63 43
10 0 28 7 42 16 13 8 29 14 37 13 36 -5 41 1 34 40 -3 23 -2 42 4 46 23 14 8
23 -30 18 -36 -5 -40 -4 -40 17 0 12 -10 30 -22 40 -31 25 -14 41 51 48 46 4
51 7 56 34 4 16 5 31 3 34 -3 2 -29 5 -59 7 -48 2 -54 5 -57 25 -2 13 4 34 12
47 9 13 16 44 16 69 0 48 10 57 52 49 38 -7 54 26 33 66 -8 17 -15 50 -15 75
0 25 -5 68 -11 96 -8 37 -8 54 0 64 10 12 -11 14 -121 13 -126 -2 -138 0 -225
31 -112 39 -129 39 -179 6z"/>
<path d="M7399 14478 c-36 -38 -42 -41 -52 -27 -7 9 -41 25 -76 34 -78 22 -83
17 -74 -80 6 -70 5 -71 -29 -108 -25 -26 -44 -37 -64 -37 -18 0 -48 -16 -87
-47 -71 -55 -88 -51 -99 23 -8 57 -27 74 -79 74 -21 0 -41 5 -45 11 -3 6 -26
19 -50 29 -32 14 -48 30 -64 59 l-20 41 -85 0 c-60 0 -100 6 -138 20 -29 11
-64 20 -78 19 -13 0 -44 3 -68 7 -32 5 -45 3 -52 -7 -19 -30 -9 -58 33 -92 33
-28 41 -41 41 -67 0 -35 -39 -80 -69 -80 -28 0 -74 -30 -74 -49 0 -9 19 -31
43 -48 52 -37 76 -78 59 -95 -7 -7 -54 -15 -105 -18 -50 -4 -112 -12 -137 -18
-46 -11 -145 -27 -258 -42 -52 -6 -69 -13 -93 -38 -33 -34 -104 -62 -158 -62
-46 0 -57 -8 -65 -47 -6 -28 -2 -37 38 -79 72 -75 63 -142 -23 -175 -26 -10
-82 17 -144 69 -56 48 -111 79 -152 86 -22 4 -57 21 -78 37 -37 30 -57 31 -57
3 0 -8 -10 -45 -22 -82 -12 -37 -22 -72 -24 -78 -2 -11 -40 -14 -152 -16 -13
0 -43 14 -67 31 -49 35 -102 43 -90 14 13 -32 24 -87 19 -95 -3 -4 -18 -15
-34 -23 -34 -18 -42 -10 -62 60 -16 57 -39 69 -63 31 -15 -23 -15 -27 4 -70
12 -25 21 -52 21 -61 0 -41 30 -73 82 -89 29 -9 58 -19 63 -23 16 -13 85 -130
85 -145 0 -17 -51 -68 -68 -68 -7 0 -12 6 -12 13 0 6 -7 21 -16 32 -13 17 -16
18 -25 5 -5 -8 -7 -33 -4 -55 3 -23 -1 -61 -10 -89 -17 -56 -20 -112 -5 -121
13 -8 48 11 87 47 30 29 32 30 60 15 15 -8 55 -29 87 -46 74 -39 83 -46 102
-87 11 -23 31 -40 70 -58 30 -14 54 -32 54 -40 0 -9 -11 -32 -25 -52 -33 -48
-32 -77 4 -111 23 -22 29 -34 24 -55 -6 -32 -45 -41 -114 -26 -26 6 -57 8 -70
4 -30 -8 -179 -150 -179 -171 0 -23 63 -19 144 10 73 25 86 24 120 -14 16 -17
18 -32 14 -90 -5 -63 -9 -74 -52 -130 -42 -55 -164 -158 -223 -190 -38 -20
-26 -31 31 -31 40 0 55 -4 60 -16 9 -22 -9 -49 -48 -74 -29 -17 -37 -30 -47
-75 -11 -50 -16 -57 -53 -75 -23 -11 -47 -29 -54 -40 -15 -24 -73 -28 -92 -5
-20 24 -59 18 -97 -16 -56 -48 -69 -38 -65 53 1 43 -2 79 -7 83 -14 8 -57 -16
-107 -59 -29 -24 -45 -49 -54 -80 -11 -39 -16 -45 -34 -40 -15 3 -31 -4 -53
-26 -33 -32 -75 -108 -68 -121 7 -10 94 -39 120 -39 12 0 30 9 40 20 23 26 49
25 85 -2 23 -17 33 -19 42 -10 7 7 27 12 45 12 28 0 38 -7 65 -45 28 -40 36
-45 69 -45 34 0 39 3 50 35 7 19 19 35 26 35 12 0 205 -59 211 -65 1 -1 9 -66
17 -144 11 -118 12 -148 1 -179 -8 -21 -17 -56 -20 -78 l-7 -41 68 -5 c38 -3
84 -12 103 -20 19 -9 56 -23 81 -32 65 -23 169 -132 169 -176 0 -10 11 -25 25
-34 29 -19 169 -40 223 -33 44 5 75 -10 120 -57 39 -40 77 -53 101 -33 40 36
117 67 164 67 42 0 49 3 66 31 11 17 22 46 26 65 3 18 13 39 23 46 10 8 17 27
17 48 0 29 4 36 23 38 18 3 35 -9 67 -43 l42 -47 24 39 c20 32 24 51 24 123 0
63 4 93 16 110 29 44 111 121 165 155 46 30 66 35 155 45 55 5 107 10 114 10
8 0 19 16 25 35 13 38 35 55 74 55 52 0 56 -6 50 -81 -7 -66 -6 -68 19 -80 34
-15 53 -7 60 28 13 63 25 68 149 69 144 0 135 -2 159 39 12 19 26 35 31 35 6
0 28 -16 50 -35 42 -39 64 -39 46 0 -8 18 -6 38 11 93 26 86 41 102 71 72 12
-12 28 -19 36 -16 19 7 0 50 -33 71 -19 13 -23 24 -23 70 0 44 4 56 19 65 24
12 110 17 131 7 12 -6 19 8 33 65 21 83 33 104 53 87 8 -6 14 -22 14 -35 0
-24 13 -37 45 -42 40 -6 49 -26 35 -75 -6 -25 -9 -55 -5 -67 7 -22 8 -21 41
11 27 26 34 41 34 70 0 20 7 56 15 79 14 39 14 45 -1 62 -10 10 -29 18 -44 18
-30 0 -46 16 -80 77 -23 41 -23 44 -7 80 27 61 24 136 -10 261 -17 62 -33 115
-37 119 -3 3 -15 -2 -26 -12 -18 -17 -21 -17 -62 0 -26 11 -63 17 -94 16 -78
-3 -99 19 -97 101 0 34 3 72 5 83 3 18 -3 20 -64 23 -78 3 -93 18 -82 76 13
70 -14 95 -119 115 -60 11 -116 37 -118 56 -1 5 -2 24 -3 40 -1 29 -2 30 -65
36 -45 4 -72 2 -92 -8 -58 -29 -78 -3 -80 104 -2 61 8 76 66 102 34 15 43 25
49 51 9 47 8 62 -5 54 -11 -7 -55 -13 -114 -17 -39 -3 -55 29 -55 108 0 103 9
134 44 152 17 9 47 19 66 22 28 5 36 12 43 38 15 51 33 48 67 -12 17 -30 39
-57 50 -60 27 -9 99 31 110 61 6 14 7 42 4 63 -9 57 13 84 86 104 37 11 75 15
98 11 34 -5 40 -3 56 21 11 16 20 55 23 99 6 72 12 89 45 114 15 12 25 11 68
-3 73 -24 115 -9 132 48 6 23 20 52 29 65 24 32 34 106 20 151 -7 25 -28 52
-61 80 l-51 43 3 136 c3 124 1 137 -15 140 -10 2 -33 -13 -58 -40z"/>
<path d="M7575 13960 c-9 -10 -20 -33 -25 -52 -17 -61 -32 -73 -92 -72 -29 1
-67 5 -83 9 -45 10 -65 -17 -72 -101 -3 -38 -14 -86 -25 -107 l-19 -38 -53 6
c-64 8 -125 -7 -154 -38 -19 -20 -20 -28 -12 -57 14 -48 -12 -98 -66 -128 -54
-29 -83 -19 -119 42 -15 26 -30 46 -35 46 -4 0 -11 -12 -15 -27 -8 -33 -21
-43 -57 -43 -73 0 -105 -56 -96 -165 6 -75 18 -86 91 -78 49 5 61 10 69 29 26
57 36 12 17 -76 -10 -47 -14 -52 -60 -75 -56 -29 -62 -44 -51 -125 7 -54 8
-55 37 -52 177 19 210 11 199 -47 -8 -38 29 -66 96 -75 109 -15 140 -40 140
-116 0 -63 15 -86 50 -75 11 4 39 4 60 0 36 -6 40 -10 40 -35 0 -16 -4 -40 -9
-53 -10 -27 1 -93 19 -111 6 -6 32 -10 58 -9 26 1 68 -5 94 -14 46 -16 49 -16
61 1 9 12 20 16 33 12 16 -5 27 -32 53 -139 35 -140 37 -201 11 -264 -13 -29
-12 -36 11 -80 19 -37 31 -49 56 -54 17 -3 43 -16 58 -28 15 -11 34 -21 43
-21 24 0 79 -39 85 -60 4 -16 14 -20 49 -21 23 0 66 -3 93 -5 28 -3 58 -5 68
-4 46 2 77 1 135 -3 35 -2 65 0 67 3 3 4 22 11 42 15 21 4 43 11 50 17 8 6 19
6 32 -1 32 -18 78 -13 149 15 82 32 92 41 85 77 -5 26 -23 34 -73 29 -8 -1
-34 3 -57 9 l-43 12 0 52 c0 41 4 54 18 59 9 3 25 11 34 18 15 10 22 8 45 -14
48 -44 79 -53 223 -62 54 -4 56 -5 121 -77 44 -48 71 -70 81 -66 20 7 31 64
17 90 -15 26 -5 188 14 226 16 34 67 50 132 42 l50 -6 3 -47 c2 -26 -4 -71
-12 -99 -16 -51 -15 -53 5 -76 27 -28 112 -57 143 -49 13 3 41 23 62 44 48 47
104 82 132 82 11 0 48 -16 81 -36 58 -35 81 -37 81 -9 0 19 20 23 58 12 26 -9
36 -7 48 5 15 14 12 20 -24 57 -31 32 -40 50 -45 87 -6 56 -31 93 -80 117 -40
20 -46 37 -21 57 12 11 24 10 68 -3 70 -22 87 -22 59 2 -13 11 -54 24 -92 31
-103 17 -138 68 -104 151 l16 42 -28 21 c-136 100 -163 114 -293 144 -70 17
-166 38 -215 48 -71 14 -97 25 -142 58 -59 43 -61 46 -70 147 l-6 65 -130 68
-130 68 -146 14 -146 14 -119 75 -119 75 -97 -26 c-57 -16 -119 -40 -150 -60
-29 -19 -56 -34 -61 -34 -10 0 -61 75 -61 90 0 6 20 50 44 98 24 48 51 111 61
140 l17 53 -36 83 -36 83 35 104 c20 57 38 111 41 119 3 9 -6 24 -23 36 -40
30 -214 40 -238 14z"/>
<path d="M11472 13488 c-15 -15 -15 -43 1 -69 10 -18 9 -23 -12 -40 -13 -10
-35 -22 -50 -24 -14 -3 -39 -11 -56 -17 -16 -6 -55 -12 -85 -12 -51 -1 -55 -3
-63 -31 -23 -75 -36 -94 -80 -113 -64 -29 -98 -34 -144 -24 -45 10 -61 4 -108
-40 -16 -16 -50 -38 -75 -50 -25 -12 -89 -46 -143 -75 -54 -29 -103 -53 -110
-53 -23 0 -161 -61 -192 -84 -16 -13 -41 -27 -55 -31 -14 -4 -54 -25 -89 -46
-34 -22 -65 -39 -67 -39 -2 0 -33 -13 -69 -30 -36 -16 -72 -30 -79 -30 -22 0
-76 -50 -76 -70 0 -22 -61 -77 -94 -86 -13 -3 -38 -24 -56 -46 -31 -38 -34
-40 -83 -36 -51 3 -51 3 -65 -34 -28 -71 4 -113 94 -124 53 -6 111 -31 118
-50 11 -28 -21 -36 -75 -20 -29 9 -59 16 -66 16 -21 0 -15 -20 10 -29 47 -19
97 -97 97 -154 0 -11 18 -39 40 -63 22 -24 37 -49 35 -56 -10 -26 -42 -38 -76
-28 -55 16 -53 -7 4 -74 74 -87 76 -89 92 -82 8 3 40 21 70 41 31 19 58 35 62
35 5 0 132 -110 176 -153 17 -17 17 -19 -18 -59 -19 -23 -35 -45 -35 -48 0 -4
10 -20 22 -35 12 -16 27 -54 33 -84 l12 -56 77 -32 c67 -27 93 -47 200 -147
l124 -116 98 -26 c85 -23 107 -33 157 -75 32 -26 80 -73 108 -103 28 -31 55
-54 60 -51 4 3 8 30 7 59 -1 48 2 56 31 82 25 23 33 39 38 82 5 48 10 57 54
94 35 29 67 73 115 159 37 65 83 138 103 160 27 32 36 52 37 83 2 55 15 120
25 126 4 3 9 32 11 65 3 55 1 60 -19 63 -12 2 -27 10 -34 18 -14 17 0 39 88
140 50 57 120 104 155 104 8 0 46 11 84 24 61 21 89 24 234 25 91 0 183 -4
205 -9 62 -16 210 -32 309 -34 l90 -1 8 34 c7 25 5 37 -6 50 -10 11 -16 36
-16 63 0 24 -7 66 -16 92 -12 36 -14 53 -6 71 9 19 7 26 -9 41 -25 23 -24 48
4 67 l22 15 -34 13 -33 12 7 60 c3 34 13 73 21 88 8 16 14 37 14 47 0 11 9 31
21 46 l20 26 -35 0 c-32 0 -36 3 -36 26 0 14 5 34 10 45 11 20 99 69 124 69 8
0 19 6 23 14 19 32 88 47 111 24 9 -9 13 -7 18 5 10 27 -4 67 -25 67 -10 0
-44 13 -77 29 -32 15 -72 33 -89 39 -46 16 -155 23 -200 12 -26 -6 -54 -6 -78
1 -32 8 -42 7 -56 -5 -23 -21 -51 -20 -119 5 -31 12 -84 25 -117 29 -91 12
-111 23 -139 78 -23 46 -29 50 -70 56 -28 4 -70 24 -112 52 -75 49 -82 50
-123 29 -39 -20 -54 -2 -45 54 4 27 2 46 -6 56 -15 18 -42 19 -58 3z"/>
<path d="M9103 12075 c-38 -27 -53 -129 -37 -268 6 -62 -4 -87 -36 -87 -10 0
-47 32 -82 71 l-64 72 -114 13 c-100 11 -117 16 -150 43 -34 27 -41 29 -64 18
-22 -10 -25 -18 -24 -52 1 -22 6 -43 12 -47 6 -4 42 -8 79 -8 45 0 69 -4 71
-12 3 -7 7 -26 11 -41 3 -16 16 -38 29 -50 33 -32 153 -117 164 -117 5 0 29
-13 53 -30 36 -24 51 -28 81 -23 32 5 43 0 87 -33 60 -46 76 -82 58 -126 -9
-21 -23 -34 -47 -42 -35 -11 -35 -12 -32 -63 4 -49 2 -53 -22 -59 -16 -4 -35
-1 -49 9 -13 8 -36 17 -52 19 -24 3 -30 10 -47 66 -10 34 -24 62 -31 62 -7 0
-28 -16 -47 -35 l-34 -35 14 -67 c7 -38 20 -83 27 -102 12 -29 12 -38 2 -59
-8 -13 -23 -28 -35 -32 -18 -7 -22 -19 -27 -97 -7 -96 -17 -111 -93 -148 -51
-24 -67 -58 -55 -117 6 -30 10 -33 38 -30 37 4 73 -13 73 -33 0 -8 11 -17 25
-21 13 -3 40 -24 60 -45 44 -49 46 -88 9 -126 -32 -32 -33 -45 -10 -153 35
-171 43 -191 114 -308 23 -39 42 -77 42 -86 0 -24 81 -31 138 -13 90 30 119
46 146 82 21 27 32 34 48 29 16 -5 33 7 79 52 44 44 61 55 71 47 17 -15 133
-36 182 -34 49 2 168 72 187 109 53 108 80 141 137 168 36 17 85 30 137 35 44
5 100 16 125 25 68 25 214 148 280 236 35 46 36 46 82 41 59 -7 99 9 133 52
30 40 81 59 135 50 46 -8 140 19 140 40 0 7 -47 57 -104 112 l-104 98 -99 24
-98 24 -105 98 c-147 136 -156 143 -237 173 l-72 27 -7 55 c-4 38 -15 65 -35
90 -16 20 -29 39 -29 42 0 3 16 24 35 47 l35 43 -84 76 c-46 42 -87 76 -90 76
-3 0 -35 -18 -71 -40 -36 -22 -69 -40 -74 -40 -4 0 -36 34 -71 75 -38 45 -70
75 -82 75 -10 0 -49 16 -85 35 -62 33 -66 34 -94 20 -16 -9 -51 -35 -79 -60
-76 -68 -83 -70 -152 -49 -64 19 -108 52 -108 82 0 10 7 42 16 71 8 29 14 67
12 84 -3 31 -4 32 -58 35 -38 2 -62 -2 -77 -13z"/>
<path d="M7562 11687 c-6 -29 -12 -63 -12 -75 0 -27 -25 -39 -45 -22 -20 16
-114 8 -126 -11 -18 -27 -3 -83 30 -117 21 -21 31 -40 29 -54 -4 -30 -46 -37
-66 -11 -13 17 -14 17 -25 -2 -24 -41 -37 -101 -31 -146 5 -42 10 -49 72 -96
37 -28 90 -59 118 -69 50 -17 52 -17 92 4 l42 22 27 -41 c28 -42 56 -59 98
-59 13 0 26 -3 28 -8 4 -6 -22 -137 -47 -239 -4 -12 -19 -26 -37 -32 l-31 -11
20 -32 c22 -36 52 -175 52 -242 0 -24 -5 -68 -11 -100 -11 -50 -17 -61 -54
-87 -37 -27 -43 -37 -48 -76 -4 -40 -1 -51 29 -90 19 -25 34 -48 34 -53 0 -5
3 -15 6 -24 4 -9 -4 -20 -24 -30 l-29 -15 18 -53 c11 -32 18 -76 17 -110 -1
-51 1 -59 28 -80 52 -42 88 -61 158 -84 66 -20 70 -24 81 -60 22 -73 30 -82
88 -89 44 -6 62 -3 95 14 29 15 60 21 107 21 l65 0 22 -44 c18 -37 26 -45 47
-44 14 1 43 -2 64 -6 23 -5 37 -4 37 2 0 5 18 22 40 37 22 15 40 34 40 42 0
22 62 73 88 73 12 0 25 7 29 16 5 12 14 15 44 10 30 -5 45 -1 75 19 20 14 41
25 45 25 5 0 9 13 9 29 0 20 -8 34 -25 45 -57 38 -7 102 102 130 31 8 49 18
51 29 2 10 -18 52 -43 95 -54 88 -69 128 -97 262 -33 159 -34 176 -5 195 14 9
27 27 30 41 6 35 -42 99 -87 114 -24 8 -36 18 -36 30 0 23 -29 33 -65 24 -35
-9 -45 7 -45 74 0 59 8 69 88 117 49 29 51 32 62 93 7 34 10 76 7 92 -5 25 -2
31 30 50 28 16 34 25 30 43 -4 12 -15 56 -26 97 -12 41 -21 85 -21 96 0 24 71
94 95 94 17 0 34 -28 50 -85 10 -33 17 -41 44 -46 18 -4 38 -12 44 -18 6 -6
20 -11 30 -11 17 0 18 6 15 52 -3 52 -3 53 31 64 75 24 76 75 3 141 -41 37
-51 41 -83 37 -29 -5 -49 2 -113 38 -43 23 -88 52 -100 63 -12 11 -41 32 -64
48 -23 15 -42 32 -42 37 0 6 -9 6 -22 -1 -110 -57 -160 -71 -213 -59 -38 8
-53 8 -77 -5 -17 -8 -39 -15 -49 -15 -10 0 -20 -4 -24 -10 -3 -5 -25 -7 -48
-4 -23 3 -82 7 -132 9 -49 3 -103 6 -120 8 -16 2 -51 4 -77 5 -41 2 -48 5 -48
22 0 14 -14 27 -46 42 -55 27 -58 24 -75 -80 -10 -62 -17 -77 -48 -107 -19
-19 -39 -35 -43 -35 -14 0 -21 51 -14 105 l6 54 -39 11 c-31 8 -40 16 -45 40
-8 44 -20 37 -34 -23z"/>
<path d="M11440 11521 c0 -10 -18 -41 -40 -67 -23 -27 -68 -98 -102 -159 -41
-74 -78 -126 -115 -161 -48 -45 -53 -54 -53 -93 0 -35 -6 -48 -36 -79 -30 -31
-35 -42 -31 -70 8 -45 -10 -90 -43 -107 -57 -30 -106 -42 -131 -33 -44 17 -90
2 -139 -47 -45 -44 -49 -46 -115 -50 -68 -4 -69 -4 -100 -47 -59 -80 -208
-203 -283 -231 -23 -9 -75 -20 -115 -23 -46 -4 -95 -17 -134 -34 -64 -29 -86
-55 -135 -154 -17 -35 -34 -51 -93 -85 -83 -47 -110 -50 -236 -25 l-81 17 -41
-47 c-32 -36 -49 -48 -73 -48 -22 -1 -35 -9 -51 -32 -31 -47 -173 -101 -245
-92 -61 7 -139 -11 -193 -44 -42 -26 -44 -41 -10 -74 36 -36 34 -83 -2 -97
-16 -6 -38 -19 -50 -31 -17 -16 -29 -19 -62 -13 -34 6 -41 4 -41 -9 0 -11 -9
-16 -29 -16 -32 0 -91 -48 -91 -73 0 -9 -15 -25 -34 -36 -19 -12 -37 -29 -40
-37 -5 -13 -15 -15 -44 -11 -20 3 -44 8 -53 12 -46 18 -66 -87 -31 -157 l19
-36 -38 -44 c-42 -50 -63 -118 -35 -118 9 0 21 -10 27 -23 6 -13 26 -32 45
-42 26 -14 34 -25 34 -45 0 -15 -7 -33 -15 -40 -17 -14 -20 -46 -5 -55 6 -4
22 0 35 9 13 9 38 16 55 16 26 0 30 -3 30 -28 0 -16 -9 -37 -20 -47 -40 -36
-17 -55 65 -55 38 0 41 -3 63 -48 24 -50 59 -78 184 -147 71 -38 146 -106 188
-168 20 -30 31 -37 57 -37 18 0 52 -10 77 -22 l44 -21 51 21 c27 12 57 22 65
22 13 0 16 12 16 58 0 43 6 67 25 97 36 59 33 104 -10 143 -46 43 -51 69 -24
131 l22 52 71 -7 c92 -9 105 -14 153 -64 l40 -43 12 48 12 47 47 -5 c26 -2 62
-10 79 -18 27 -11 38 -11 70 0 37 14 38 13 68 -22 17 -19 41 -37 55 -39 13 -1
29 -12 35 -23 20 -41 41 -61 87 -88 50 -29 68 -52 68 -87 0 -44 130 -66 222
-38 54 16 188 147 188 184 0 16 16 42 46 74 45 49 46 50 51 132 4 73 9 89 39
136 19 28 38 52 42 52 16 0 43 62 40 93 -3 31 -2 32 37 32 61 0 91 24 98 79 4
25 16 64 27 87 12 23 18 48 15 60 -4 10 -2 34 3 52 6 17 12 56 15 86 l4 53
-41 -4 c-29 -4 -52 1 -76 14 -26 13 -46 17 -81 12 -57 -8 -97 9 -78 32 7 9 25
22 41 30 16 8 28 23 28 34 0 10 4 21 9 25 5 3 7 38 4 80 -5 69 -4 78 17 100
27 28 52 32 70 10 7 -8 27 -17 46 -21 19 -3 34 -12 34 -20 0 -19 59 -84 86
-94 13 -5 36 -4 57 2 30 9 45 7 95 -11 47 -18 64 -20 81 -12 11 6 30 16 41 21
28 14 123 13 138 -2 7 -7 12 -24 12 -39 0 -34 8 -39 38 -28 13 5 22 17 22 29
0 15 8 22 31 27 20 4 34 15 41 32 6 14 19 44 30 67 10 22 18 49 18 59 0 10 12
34 26 53 26 34 26 35 10 69 -18 37 -9 63 20 63 10 0 14 15 14 58 0 57 -1 59
-35 75 -19 9 -35 21 -35 27 0 18 43 70 58 70 12 0 12 3 1 16 -7 9 -18 26 -24
37 -6 13 -20 22 -35 22 -21 0 -27 8 -39 48 l-15 47 -51 0 c-45 0 -54 3 -73 30
-12 16 -22 41 -22 55 0 14 -6 38 -14 53 -8 15 -17 44 -20 65 -6 38 -28 77 -77
132 -36 41 -69 99 -69 120 0 15 8 16 69 10 l69 -7 -2 84 c-1 46 -5 89 -10 96
-4 7 -1 23 8 37 9 14 16 45 16 73 l0 48 53 18 c28 9 66 20 83 23 27 4 32 1 44
-27 13 -31 14 -31 27 -14 8 11 13 30 11 44 -2 20 -13 28 -53 42 -44 15 -50 20
-48 43 2 25 -27 65 -47 65 -5 0 -10 -9 -10 -19z"/>
<path d="M7182 11231 c-9 -17 -26 -34 -37 -37 -23 -8 -183 -6 -195 1 -15 9
-58 -17 -69 -42 -6 -13 -11 -35 -11 -48 0 -30 -25 -33 -70 -10 -35 18 -45 49
-36 110 l7 45 -35 0 c-36 0 -66 -27 -66 -60 0 -18 -105 -40 -190 -40 -42 0
-59 -6 -107 -40 -70 -48 -149 -125 -169 -163 -12 -23 -13 -35 -4 -63 14 -43
-1 -118 -34 -167 -20 -29 -22 -40 -15 -92 4 -33 8 -67 8 -76 1 -9 19 -29 40
-43 31 -22 41 -36 46 -67 5 -30 17 -47 55 -79 27 -23 66 -64 87 -92 61 -84 47
-137 -74 -274 -29 -34 -56 -75 -59 -91 -7 -34 15 -84 45 -105 20 -14 61 -85
61 -106 0 -25 41 -72 63 -72 11 0 36 15 54 32 32 31 38 33 115 35 48 1 95 9
114 18 18 8 39 12 48 9 9 -4 41 12 81 40 36 25 69 46 74 46 4 0 22 -16 41 -35
45 -46 94 -53 175 -25 33 11 99 30 147 41 85 20 89 22 134 75 26 30 50 54 55
54 15 0 30 -49 43 -138 13 -85 20 -97 65 -109 20 -5 31 2 62 38 36 41 38 48
38 109 0 37 -8 88 -18 119 l-19 54 29 10 c16 6 29 17 29 23 0 6 -16 35 -35 63
-28 40 -35 60 -35 97 0 43 4 49 51 93 l51 48 5 90 c7 110 -10 212 -44 271 -14
24 -23 45 -21 47 1 1 17 10 35 19 32 16 33 17 78 224 3 12 1 23 -5 23 -5 1
-14 3 -20 4 -5 1 -21 3 -34 4 -17 1 -32 14 -50 46 l-27 45 -41 -21 -40 -21
-60 23 c-33 12 -91 46 -128 76 -38 29 -75 53 -84 53 -8 0 -17 4 -21 10 -3 5
-19 19 -35 30 l-30 21 -18 -30z"/>
<path d="M4820 10866 c0 -23 32 -161 41 -178 7 -13 29 -43 50 -68 36 -43 39
-51 45 -131 l7 -86 -72 -23 c-59 -19 -71 -26 -71 -44 0 -11 15 -79 33 -151 33
-127 33 -133 26 -265 -7 -123 -32 -285 -48 -307 -12 -18 -96 -70 -124 -77 -17
-4 -38 -1 -57 9 -28 14 -33 14 -72 -6 -74 -37 -201 -118 -242 -153 -37 -32
-39 -36 -28 -60 6 -14 19 -26 28 -26 14 0 16 -8 11 -46 -6 -58 -28 -83 -54
-64 -10 7 -4 -1 14 -18 18 -18 40 -32 51 -32 23 0 52 -30 52 -53 0 -11 8 -17
21 -17 12 0 38 -18 59 -42 28 -30 38 -36 37 -22 -1 13 5 20 21 22 12 2 22 10
22 18 0 8 10 14 22 14 24 0 100 -74 96 -94 -1 -6 6 -26 16 -45 10 -20 15 -43
12 -57 -4 -14 -2 -24 4 -24 7 0 9 -8 5 -19 -4 -14 0 -21 15 -26 22 -7 28 -25
7 -25 -17 0 -38 -36 -31 -55 4 -9 15 -20 25 -26 11 -5 19 -20 19 -35 0 -14 7
-38 15 -54 9 -16 18 -50 21 -74 5 -36 11 -46 30 -50 14 -4 33 -2 43 4 21 11
48 -11 36 -30 -4 -6 0 -19 8 -28 17 -20 57 -137 57 -168 0 -17 5 -21 18 -17
15 4 19 -1 18 -29 0 -59 45 -292 63 -323 10 -17 26 -64 36 -104 12 -50 26 -82
45 -101 19 -20 31 -46 38 -87 18 -98 53 -256 63 -281 5 -13 9 -35 9 -50 0 -77
82 -204 140 -217 30 -7 61 -55 72 -109 4 -22 11 -43 16 -48 15 -15 145 -48
189 -48 39 0 42 2 61 43 28 60 39 94 53 158 10 48 9 65 -9 130 -11 40 -23 94
-27 118 -5 27 -17 53 -32 67 -30 28 -21 51 35 89 46 31 57 31 85 1 21 -22 93
-56 120 -56 37 1 39 17 8 78 -38 75 -39 111 -5 151 28 34 49 38 79 17 11 -8
43 -16 70 -18 64 -6 241 -36 278 -48 23 -7 31 -5 45 12 9 12 30 34 47 50 l29
28 -38 34 c-31 29 -36 38 -27 54 11 21 90 62 120 62 24 0 43 23 35 44 -3 8
-21 25 -40 37 -26 16 -37 32 -49 74 -16 53 -45 87 -120 138 -17 13 -25 26 -23
40 3 19 11 22 51 25 26 2 47 6 47 9 0 3 -13 22 -29 42 -39 49 -45 73 -27 116
14 32 18 35 43 29 15 -4 36 -11 46 -16 19 -10 45 1 67 26 28 34 40 19 40 -50
0 -64 1 -66 23 -60 12 3 28 6 35 6 8 0 12 22 12 76 0 61 -4 82 -21 105 -26 37
-20 68 28 161 31 59 34 72 25 95 -11 28 -17 93 -14 144 1 15 18 50 37 79 19
28 39 69 45 91 8 30 18 42 43 52 l32 13 -24 20 c-73 60 -86 85 -76 151 5 35
15 53 46 82 38 35 40 39 28 64 -7 15 -23 34 -36 42 -26 17 -30 53 -12 120 6
22 13 50 16 63 4 16 -2 31 -17 48 -27 28 -47 30 -77 9 -15 -11 -43 -15 -91
-13 -72 2 -88 -4 -141 -51 -50 -44 -97 -17 -127 71 -8 27 -36 72 -60 100 -36
43 -44 59 -44 93 0 45 12 66 82 144 54 60 88 118 88 153 0 34 -30 77 -107 154
-53 52 -72 78 -77 106 -4 24 -14 39 -26 43 -37 12 -60 54 -60 110 0 28 -7 65
-15 81 -37 75 -131 127 -105 58 10 -26 1 -43 -22 -44 -3 0 -14 -24 -23 -52
-26 -78 -48 -98 -109 -98 -41 -1 -64 -8 -116 -39 -63 -38 -66 -39 -100 -25
-19 8 -54 33 -76 56 -39 37 -45 40 -82 33 -49 -8 -184 11 -229 32 -18 8 -33
23 -33 32 0 48 -97 156 -161 180 -18 7 -49 19 -67 27 -39 17 -182 40 -182 30z"/>
<path d="M7411 9832 c-36 -43 -47 -49 -103 -61 -35 -7 -106 -26 -159 -42 -88
-27 -101 -29 -143 -18 -31 8 -54 21 -70 42 l-24 30 -50 -32 c-71 -45 -77 -54
-57 -84 14 -23 15 -30 1 -74 -29 -95 -28 -112 2 -141 15 -15 34 -39 41 -54 13
-25 11 -28 -33 -70 -42 -41 -46 -49 -46 -93 0 -44 4 -51 51 -97 54 -52 55 -69
5 -82 -18 -4 -26 -17 -34 -48 -6 -24 -23 -59 -37 -78 -45 -61 -58 -154 -30
-213 14 -30 19 -32 69 -34 42 -2 64 -10 107 -38 74 -49 89 -52 109 -25 17 22
19 22 41 6 13 -9 31 -16 41 -16 40 0 43 -78 4 -93 -27 -11 -18 -24 20 -30 20
-3 45 -14 56 -24 19 -17 29 -12 41 20 5 15 82 -12 105 -36 25 -26 22 -48 -10
-83 l-20 -22 42 -7 c62 -11 94 -44 126 -133 30 -84 48 -112 74 -112 9 0 25 -7
36 -15 18 -15 18 -16 -13 -43 -18 -16 -33 -33 -33 -39 0 -21 81 -74 125 -82
25 -5 54 -16 64 -25 21 -19 46 -20 90 -5 40 14 58 1 67 -50 17 -104 44 -131
129 -131 52 0 57 4 133 102 48 63 52 71 62 155 14 103 29 147 78 226 43 69 66
86 91 63 25 -23 34 -20 55 18 28 53 68 86 122 99 33 8 52 19 60 34 6 13 19 32
29 43 17 19 17 21 0 40 -13 14 -16 28 -11 52 17 85 18 149 4 166 -8 9 -18 25
-21 35 -5 13 -18 17 -56 17 -84 0 -101 19 -61 70 36 47 19 78 -24 45 -11 -8
-32 -15 -48 -15 -39 0 -47 38 -19 83 20 33 20 35 3 51 -10 9 -24 16 -30 16 -6
0 -19 11 -27 24 -9 13 -25 26 -36 29 -19 5 -20 11 -14 49 3 24 15 54 26 68 53
69 51 64 33 119 -11 33 -14 67 -11 94 4 27 1 57 -10 85 l-16 42 -68 0 c-51 0
-77 -5 -103 -21 -31 -18 -44 -20 -98 -12 l-63 8 -21 60 -21 60 -74 26 c-41 14
-98 43 -128 64 l-53 38 -23 -29 c-12 -16 -32 -40 -42 -53 l-20 -25 -46 27
c-42 25 -46 31 -52 75 -12 89 -26 152 -35 152 -5 0 -27 -22 -49 -48z"/>
<path d="M10750 9112 c0 -7 -17 -31 -39 -55 -56 -61 -65 -83 -71 -175 -6 -80
-7 -84 -48 -125 -25 -26 -44 -56 -48 -77 -6 -25 -29 -56 -85 -112 l-77 -77 10
-44 c5 -24 8 -73 6 -107 l-3 -64 -46 -12 c-26 -6 -79 -24 -118 -39 l-71 -27 0
-58 c0 -62 -26 -197 -43 -217 -6 -9 -45 -13 -128 -13 -188 0 -255 -14 -344
-70 l-76 -48 -67 20 c-60 18 -73 27 -125 84 -66 72 -91 80 -101 33 -13 -67 -7
-139 15 -169 l21 -28 -33 -59 c-18 -32 -58 -96 -89 -143 -31 -47 -66 -102 -79
-122 l-22 -38 30 -38 c25 -30 32 -51 37 -102 4 -36 17 -92 29 -125 39 -101 39
-117 0 -174 -30 -44 -35 -59 -35 -110 0 -58 0 -59 33 -65 45 -9 108 -66 128
-118 10 -26 24 -44 35 -47 37 -6 51 -30 57 -94 9 -95 27 -141 57 -145 14 -2
49 -10 77 -18 49 -13 54 -18 78 -68 14 -30 47 -73 75 -99 33 -30 48 -51 44
-61 -3 -9 -10 -16 -15 -16 -5 0 -9 -7 -9 -15 0 -12 13 -15 55 -15 46 0 60 -4
80 -25 14 -13 25 -30 25 -38 0 -8 9 -22 19 -31 17 -16 22 -16 43 -2 17 11 47
14 120 12 96 -2 98 -2 125 26 15 15 37 28 51 28 38 0 61 18 84 67 13 27 32 50
48 57 40 17 133 124 125 144 -20 47 -18 50 39 66 79 23 119 14 172 -41 39 -40
44 -42 53 -25 5 10 10 34 9 53 -1 49 17 109 41 132 17 18 24 19 46 9 39 -18
59 -15 85 13 32 34 32 83 -2 123 -27 33 -62 127 -53 142 4 6 21 10 39 10 25 0
35 5 39 19 4 16 17 21 66 27 34 4 64 10 67 15 2 5 -1 21 -9 36 -18 36 -13 50
28 67 46 20 60 48 35 71 -28 26 -26 63 4 71 13 3 32 4 42 2 13 -2 25 10 41 40
25 47 23 62 -7 62 -10 0 -22 5 -25 10 -3 6 -16 10 -29 10 -12 0 -33 12 -47 26
-13 14 -34 30 -46 35 -18 6 -23 16 -23 42 0 45 26 67 78 67 51 0 56 19 12 50
-21 15 -30 30 -30 49 0 42 -19 52 -83 45 -54 -6 -56 -6 -63 20 -8 32 4 98 19
108 7 4 33 8 58 8 44 0 47 2 53 30 7 38 39 40 75 6 15 -13 36 -27 49 -31 21
-6 22 -4 22 68 0 62 -3 77 -21 93 -16 15 -24 16 -39 6 -33 -21 -59 -14 -80 21
-25 40 -25 67 -2 74 10 2 24 13 31 25 10 17 10 23 -5 39 -14 16 -26 19 -58 14
-62 -8 -84 14 -99 99 -11 67 -11 69 13 87 14 11 37 31 53 46 21 21 30 24 39
15 20 -20 28 -14 28 22 0 52 9 66 41 66 23 0 32 6 40 27 5 14 8 32 5 39 -8 20
-75 29 -110 15 -53 -22 -98 -30 -119 -22 -12 5 -34 35 -51 72 -30 61 -33 64
-80 76 -27 7 -54 17 -59 22 -14 14 -38 79 -44 121 -3 19 -11 43 -19 54 -9 13
-10 26 -3 43 5 13 9 37 9 54 0 44 40 152 62 170 19 15 19 20 8 55 -13 41 -30
67 -30 46z"/>
<path d="M9320 8805 c-7 -8 -15 -34 -17 -58 -4 -39 -2 -45 36 -82 28 -27 41
-48 41 -67 0 -30 -17 -74 -37 -99 -7 -9 -14 -44 -16 -78 l-2 -63 -40 -15
c-101 -38 -111 -38 -164 -14 -27 13 -57 21 -65 18 -25 -10 -45 2 -76 48 -16
24 -47 59 -68 79 -42 41 -251 168 -262 161 -16 -10 -22 -132 -8 -154 10 -17
10 -25 1 -39 -7 -9 -19 -31 -27 -49 -10 -21 -23 -33 -45 -38 -17 -3 -33 -6
-36 -6 -20 4 -71 -38 -102 -84 -37 -57 -52 -65 -73 -40 -20 25 -34 18 -70 -37
-54 -83 -69 -124 -82 -225 -11 -93 -13 -97 -68 -172 -72 -96 -77 -100 -139
-108 l-51 -6 0 -78 0 -79 -62 0 c-34 0 -88 -5 -120 -12 -58 -12 -59 -13 -70
-56 -9 -37 -22 -52 -94 -110 -46 -37 -83 -70 -84 -73 0 -3 46 -15 103 -26 70
-14 133 -35 198 -66 53 -24 137 -57 187 -72 84 -24 96 -25 154 -14 57 10 69
17 126 73 49 48 76 66 125 82 l62 21 43 -35 c42 -34 42 -35 42 -101 1 -36 7
-93 15 -126 8 -33 15 -81 15 -107 0 -26 9 -69 19 -95 10 -27 22 -84 26 -128
10 -115 10 -115 48 -104 17 5 74 9 125 9 114 0 142 13 231 104 35 36 69 66 76
66 8 0 14 25 19 71 5 56 13 80 37 116 27 39 30 50 25 86 -4 23 -15 60 -26 83
-10 24 -21 73 -25 111 -6 57 -13 75 -42 110 l-34 42 52 83 c28 46 62 98 76
116 34 45 93 151 93 167 0 7 -7 18 -15 25 -11 9 -15 34 -15 94 0 44 3 92 7
104 11 42 59 22 128 -52 52 -56 68 -67 119 -81 l58 -16 71 47 c64 42 80 48
166 60 53 8 142 14 198 14 l103 0 6 28 c3 15 11 45 17 67 5 22 13 73 16 114
l6 74 75 28 c41 16 95 33 119 39 l44 12 -6 76 c-10 113 -14 125 -46 116 -56
-15 -145 -12 -189 7 -42 18 -46 22 -56 69 -3 17 -23 36 -59 58 -32 19 -62 47
-73 67 -12 22 -26 35 -39 35 -25 0 -36 8 -58 43 -17 27 -50 36 -62 17 -9 -15
-42 -12 -76 6 -17 8 -45 17 -64 19 -39 5 -49 -6 -60 -68 -4 -20 -10 -37 -14
-37 -3 0 -22 20 -41 44 -19 24 -50 51 -68 60 -43 21 -145 21 -162 1z"/>
<path d="M6733 8656 c-23 -27 -73 -129 -73 -150 0 -12 8 -38 19 -58 17 -35 18
-50 12 -185 -1 -9 -18 -13 -51 -13 l-50 0 0 62 0 61 -23 -21 c-27 -25 -46 -27
-94 -10 -29 10 -36 10 -43 -2 -20 -31 -10 -70 25 -109 36 -40 39 -70 6 -72 -9
0 -29 -2 -46 -2 -44 -3 -38 -26 15 -57 49 -29 85 -74 99 -127 6 -20 29 -53 56
-78 42 -38 45 -45 35 -65 -6 -11 -19 -24 -28 -27 -68 -21 -121 -47 -127 -61
-6 -16 -1 -22 47 -55 22 -15 14 -54 -12 -62 -10 -3 -28 -22 -40 -42 -18 -30
-24 -34 -48 -29 -15 3 -58 11 -97 16 -38 6 -101 18 -138 26 -48 12 -72 13 -79
6 -7 -7 -20 -4 -42 9 -42 26 -61 24 -86 -8 -26 -33 -21 -63 26 -148 19 -34 34
-65 34 -68 0 -4 -22 -7 -49 -7 -53 0 -128 27 -150 54 -20 24 -44 20 -80 -15
l-32 -30 26 -30 c15 -19 25 -43 25 -62 0 -18 7 -54 16 -82 28 -92 32 -134 19
-180 -13 -43 -13 -44 13 -53 15 -5 50 -32 77 -59 63 -63 118 -87 230 -103 94
-13 135 -37 135 -78 0 -32 25 -45 71 -38 55 9 85 -11 100 -66 17 -66 84 -197
131 -258 l43 -55 5 -121 c5 -111 7 -123 31 -155 25 -32 26 -37 16 -87 -9 -41
-8 -57 1 -70 7 -9 34 -62 61 -117 48 -101 62 -116 126 -134 28 -7 33 -5 55 26
65 91 91 113 131 113 35 0 40 4 60 42 19 38 20 47 10 93 -13 57 -4 98 24 109
10 3 36 -8 68 -29 28 -19 58 -35 65 -35 7 0 31 12 53 26 30 19 49 24 68 19 77
-19 79 -19 96 16 10 17 38 54 63 81 45 48 46 50 33 81 -21 51 -31 111 -20 122
6 6 20 5 40 -2 23 -9 36 -9 57 2 15 8 35 16 45 19 9 3 21 16 26 29 11 28 91
97 113 97 8 0 29 -16 48 -35 19 -19 41 -35 51 -35 9 0 43 20 75 45 59 46 81
53 115 35 23 -13 24 -29 3 -72 -14 -30 -14 -36 1 -70 13 -32 20 -38 45 -38 31
0 32 1 45 82 3 20 13 46 23 57 20 24 147 59 242 67 76 7 120 21 120 39 0 8 7
21 16 29 13 14 14 28 4 113 -6 54 -20 118 -31 142 -11 26 -19 66 -19 100 0 31
-7 81 -15 111 -8 30 -15 82 -16 115 0 55 -3 62 -33 87 l-33 28 -59 -20 c-45
-16 -74 -35 -119 -80 -54 -53 -67 -61 -120 -71 -33 -7 -71 -11 -84 -10 -39 2
-225 68 -301 106 -53 27 -102 42 -184 56 -61 10 -114 19 -118 19 -21 0 0 21
87 90 85 67 95 79 106 122 12 46 14 47 63 59 28 6 81 13 119 16 l67 6 0 76 c0
74 -1 77 -29 93 -30 17 -51 65 -51 120 0 36 -14 42 -65 28 -40 -11 -46 -10
-87 14 -25 14 -56 26 -70 26 -26 0 -112 61 -122 86 -3 8 8 30 25 48 l30 35
-40 11 c-36 10 -41 15 -61 68 -48 134 -76 172 -126 172 -55 0 -72 31 -34 65
28 26 25 42 -12 65 -43 26 -62 25 -81 -2 l-15 -23 -25 23 c-13 13 -37 25 -53
26 -16 2 -32 4 -36 5 -17 2 -7 44 14 60 24 20 20 48 -9 57 -10 3 -26 10 -37
15 -14 8 -21 6 -32 -10 -18 -25 -52 -17 -124 33 -42 29 -61 36 -99 36 -25 -1
-51 -7 -58 -14z"/>
<path d="M11616 8034 c-9 -8 -16 -23 -16 -33 0 -10 -12 -40 -26 -67 -15 -28
-26 -67 -28 -95 -2 -55 -27 -96 -62 -105 -20 -5 -32 1 -65 36 l-40 42 -57 -7
c-31 -4 -58 -8 -58 -8 -1 -1 -5 -33 -9 -71 -6 -57 -4 -68 7 -64 20 8 78 -18
78 -35 0 -8 -6 -32 -14 -54 -8 -22 -12 -60 -10 -84 3 -24 6 -61 6 -81 2 -41
-4 -39 100 -43 15 -1 35 -9 45 -18 10 -9 36 -18 58 -20 40 -5 55 -18 87 -76
20 -36 58 -43 58 -11 0 23 18 25 104 9 51 -9 62 -8 103 12 46 22 53 21 66 -16
2 -5 18 0 35 13 42 30 55 28 86 -13 15 -19 40 -42 57 -50 30 -16 38 -42 18
-62 -8 -8 -6 -14 9 -22 24 -13 19 -51 -9 -77 -24 -22 -25 -64 -1 -65 9 -1 35
0 56 1 31 1 43 -3 57 -21 17 -23 18 -23 38 -5 24 22 28 56 7 56 -8 0 -17 12
-21 27 -5 22 -2 32 19 48 30 24 32 37 10 60 -11 11 -25 14 -45 10 -45 -10 -69
9 -69 56 0 29 -5 41 -17 45 -67 22 -85 44 -76 97 4 25 13 38 32 47 14 7 33 16
41 20 8 4 18 22 21 41 4 18 12 35 18 37 15 5 14 22 -2 22 -7 0 -29 -11 -48
-25 -20 -13 -39 -22 -41 -20 -2 3 -2 24 1 47 6 41 8 43 44 48 34 4 41 11 65
55 32 58 64 69 110 36 16 -11 53 -23 83 -27 30 -4 64 -11 77 -15 19 -7 22 -5
22 16 0 13 -7 30 -15 39 -8 8 -15 26 -15 40 0 14 -4 28 -10 31 -15 9 -12 41 5
55 25 21 17 50 -26 92 -39 38 -42 39 -59 23 -26 -23 -40 -11 -40 35 0 38 -13
60 -25 41 -11 -19 -34 1 -32 27 2 24 -1 27 -28 24 -40 -5 -67 -30 -59 -56 3
-12 16 -43 28 -71 27 -59 47 -154 39 -185 -5 -19 -38 -40 -63 -40 -4 0 -11 18
-15 40 -6 34 -10 40 -26 35 -30 -10 -46 36 -30 81 9 24 10 39 3 46 -5 5 -53
10 -106 11 -92 1 -96 2 -96 24 0 12 8 38 17 58 9 19 14 37 11 41 -3 3 -24 0
-47 -7 -32 -9 -50 -9 -80 -1 -21 7 -56 12 -78 12 -23 0 -57 7 -76 15 -46 19
-62 19 -81 -1z"/>
<path d="M11226 7085 c-4 -10 -20 -15 -51 -15 -49 0 -62 -20 -25 -40 42 -22
11 -86 -51 -105 -24 -8 -24 -23 -2 -47 28 -31 6 -51 -67 -63 -52 -8 -64 -14
-71 -33 -8 -20 -14 -23 -39 -17 -17 4 -30 2 -30 -3 0 -21 31 -94 54 -129 32
-46 33 -91 5 -127 -29 -36 -62 -49 -94 -34 -44 20 -70 -20 -79 -122 -3 -44
-25 -90 -42 -90 -8 0 -21 14 -29 30 -31 61 -96 82 -175 59 -36 -11 -38 -14
-33 -43 4 -27 -3 -41 -48 -94 -29 -34 -63 -65 -76 -68 -15 -4 -32 -22 -45 -48
-29 -59 -47 -76 -80 -76 -17 0 -38 -9 -51 -23 -36 -39 -59 -47 -103 -36 -25 7
-63 7 -100 2 -56 -8 -59 -9 -62 -39 -4 -38 32 -76 95 -100 42 -16 44 -19 39
-49 -8 -42 15 -108 42 -120 29 -13 28 -38 -4 -72 -15 -15 -42 -61 -62 -101
-24 -50 -41 -74 -56 -77 -12 -2 -37 -6 -58 -10 -39 -6 -48 -19 -48 -71 0 -42
28 -208 41 -241 5 -13 9 -36 9 -50 0 -29 53 -83 106 -108 19 -9 40 -28 48 -43
8 -15 32 -42 55 -60 23 -18 41 -40 41 -49 0 -30 42 -84 78 -99 29 -12 67 -15
172 -12 74 1 140 -1 147 -5 15 -9 4 -42 -31 -94 -27 -39 -25 -58 6 -66 41 -11
72 4 103 49 35 52 50 54 120 18 34 -17 59 -23 78 -20 30 6 94 -21 132 -54 11
-10 31 -21 44 -25 13 -4 35 -20 49 -36 22 -26 29 -29 88 -29 50 0 66 -4 71
-16 7 -18 -10 -32 -49 -41 -50 -10 -31 -55 71 -171 37 -42 75 -88 84 -102 14
-20 24 -24 58 -21 46 3 109 -32 109 -61 0 -22 30 -38 73 -38 19 0 46 -9 60
-21 21 -15 31 -18 46 -10 10 6 41 13 67 16 70 9 93 48 54 90 -18 19 -18 24 -5
69 20 66 20 65 -20 82 -21 9 -35 21 -35 32 0 10 25 42 55 72 69 68 70 88 9
158 -41 47 -49 52 -87 52 -23 0 -62 -6 -87 -14 -60 -18 -95 -6 -86 29 3 13 24
50 46 81 36 52 40 63 40 120 0 70 6 77 77 92 33 7 38 12 41 37 1 17 12 60 24
98 22 73 40 84 73 47 30 -33 45 -25 46 23 1 84 12 119 44 137 27 15 30 22 33
71 2 30 7 58 12 63 6 6 25 -1 48 -17 44 -31 51 -32 89 -12 15 8 40 17 55 20
49 10 85 50 107 123 20 61 20 73 9 139 -13 78 -6 99 34 105 23 3 26 7 64 96
l27 63 -21 29 c-26 34 -28 68 -7 76 21 8 19 17 -11 61 -24 35 -25 43 -20 112
11 122 37 162 119 176 21 4 37 11 35 16 -2 4 -40 48 -85 98 -46 49 -83 94 -83
100 0 7 10 15 23 20 19 8 22 16 22 64 0 40 -6 61 -19 76 -21 23 -25 93 -6 99
17 6 11 22 -9 22 -11 0 -23 -9 -26 -20 -3 -11 -16 -25 -27 -31 -24 -13 -42 2
-52 43 -5 22 -1 31 19 44 42 28 30 37 -39 31 -48 -5 -68 -2 -85 10 -21 14 -24
14 -50 -11 -36 -34 -51 -33 -51 4 0 42 -26 50 -53 16 -18 -22 -29 -26 -62 -23
-48 3 -66 13 -59 31 3 8 1 17 -5 20 -5 4 -13 27 -17 52 -10 71 -58 71 -52 0 4
-38 -17 -44 -35 -11 l-14 27 -13 -31 c-15 -38 -50 -43 -50 -7 0 13 7 40 15 61
18 41 8 65 -26 65 -23 0 -32 -29 -24 -83 8 -49 -6 -62 -51 -51 -19 5 -24 2
-24 -14 0 -15 9 -21 38 -26 58 -9 68 -19 51 -48 -14 -23 -15 -62 -3 -131 l6
-39 -96 5 c-86 4 -98 2 -106 -14 -6 -10 -10 -27 -10 -38 0 -15 -6 -21 -21 -21
-32 0 -59 19 -59 41 0 33 -19 59 -44 59 -20 0 -24 -6 -30 -49 -11 -81 -50 -91
-85 -22 -19 38 -21 140 -3 226 7 36 11 40 35 38 20 -1 27 3 27 17 0 10 5 20
12 22 8 3 8 9 0 23 -17 31 11 75 48 75 46 0 40 34 -12 67 -43 27 -88 53 -93
53 -2 0 -5 -7 -9 -15z"/>
<path d="M13617 7068 c-8 -18 -21 -39 -30 -47 -10 -7 -17 -19 -17 -26 0 -7 -8
-23 -19 -36 l-18 -23 -34 32 c-19 17 -34 40 -34 49 0 16 -10 18 -72 19 -40 0
-76 3 -79 7 -14 14 -30 6 -47 -23 -18 -29 -18 -30 7 -55 15 -15 29 -43 32 -64
6 -37 5 -39 -24 -46 -17 -3 -33 -13 -36 -21 -3 -8 -11 -14 -18 -14 -7 0 -23
-15 -36 -34 -18 -26 -35 -37 -88 -52 -77 -22 -89 -37 -80 -104 5 -39 3 -52
-14 -71 -17 -20 -21 -22 -30 -9 -5 8 -10 25 -10 37 0 19 -4 21 -40 16 -38 -5
-40 -4 -40 21 0 22 -4 26 -28 26 -16 0 -42 -11 -57 -24 -27 -24 -28 -25 -12
-50 10 -14 17 -28 17 -31 0 -12 -45 -4 -63 12 -18 17 -20 17 -37 -5 -10 -12
-28 -22 -39 -22 -12 0 -24 -7 -27 -15 -10 -25 -32 -17 -39 16 -8 35 -48 60
-67 41 -8 -8 -4 -19 16 -42 26 -32 36 -93 17 -105 -5 -3 -23 9 -39 26 -35 37
-54 31 -50 -14 3 -28 0 -32 -24 -35 -16 -2 -28 -6 -28 -9 0 -4 28 -37 61 -75
34 -38 60 -70 58 -71 -2 -2 -26 -9 -54 -15 -27 -7 -60 -20 -72 -27 -28 -19
-43 -72 -43 -154 0 -53 4 -70 25 -97 30 -40 30 -42 4 -70 l-22 -23 27 -31 c25
-30 25 -33 11 -67 -22 -53 -20 -59 23 -55 29 3 45 -2 68 -21 16 -13 46 -27 68
-31 21 -4 63 -18 94 -32 63 -28 85 -30 102 -9 19 22 54 18 80 -10 17 -18 34
-25 60 -25 34 0 38 -3 60 -50 23 -48 25 -50 65 -50 47 0 64 -14 89 -75 21 -50
33 -57 63 -38 13 8 23 12 23 8 0 -4 14 5 31 19 26 22 37 25 68 20 67 -12 141
-45 158 -70 25 -39 30 -120 8 -144 -15 -17 -16 -24 -7 -45 7 -14 23 -30 37
-37 22 -10 27 -8 45 15 27 34 76 47 178 47 72 0 245 21 294 36 24 7 37 56 31
116 -5 53 -5 54 37 92 l42 38 -3 66 c-5 143 -2 181 22 229 21 42 29 48 69 58
39 9 45 14 48 38 3 21 11 31 33 39 31 10 51 43 90 143 26 68 25 102 -3 108
-43 9 -74 1 -120 -31 -26 -18 -55 -32 -66 -32 -35 0 -43 54 -14 86 10 10 21
26 24 35 8 19 -17 59 -36 59 -7 0 -30 16 -50 34 -35 33 -40 35 -106 34 -47 -1
-71 -6 -74 -15 -7 -18 -26 -17 -26 2 0 8 -12 22 -26 31 -23 15 -25 21 -18 58
9 55 10 56 45 44 25 -8 33 -7 49 7 27 25 25 37 -10 63 -22 16 -30 31 -30 52 0
17 4 30 8 30 5 0 24 14 42 30 33 29 33 32 21 65 -11 30 -10 39 6 65 16 28 16
33 3 58 -13 22 -24 28 -57 30 -29 2 -44 8 -47 20 -7 20 -49 49 -53 36 -22 -63
-56 -78 -110 -49 -37 20 -63 14 -63 -14 0 -27 -48 -81 -71 -81 -23 0 -26 7
-32 86 l-5 60 44 28 c43 27 43 28 41 79 -1 29 1 59 3 67 3 9 -3 16 -17 18 -17
3 -25 -4 -36 -30z"/>
<path d="M5784 6953 c-12 -40 -49 -118 -59 -125 -16 -12 -65 -8 -140 12 -38
10 -72 16 -75 13 -3 -3 6 -13 19 -24 19 -16 21 -22 11 -34 -10 -13 -9 -29 8
-88 27 -92 49 -203 57 -292 5 -45 14 -77 25 -90 28 -32 42 -64 35 -84 -3 -10
-1 -41 6 -67 23 -101 39 -235 50 -419 9 -151 16 -206 35 -265 13 -41 42 -143
63 -225 83 -321 96 -365 108 -365 8 0 13 -13 13 -34 0 -64 3 -66 101 -66 99 0
139 -17 192 -79 22 -27 24 -35 16 -63 -13 -48 -12 -51 28 -77 50 -32 83 -40
132 -31 37 7 46 4 78 -21 19 -16 39 -29 43 -29 4 0 25 29 46 63 43 70 138 156
207 187 23 11 64 20 91 20 48 0 186 52 186 70 0 4 -20 30 -44 56 -50 57 -71
94 -80 146 -4 24 -18 48 -38 65 -92 81 -148 147 -159 183 -15 49 -5 63 66 95
57 25 75 53 95 140 16 72 8 91 -41 99 -83 13 -102 31 -154 146 -16 36 -40 80
-53 99 -23 31 -24 36 -12 88 10 46 9 57 -3 71 -38 43 -47 80 -47 186 0 95 -2
107 -23 133 -54 65 -147 237 -147 272 0 7 -7 25 -15 42 -15 28 -18 29 -70 26
-66 -4 -76 1 -90 50 -12 43 -35 54 -152 72 -96 14 -136 34 -210 103 -63 60
-90 71 -99 41z"/>
<path d="M9041 6666 c-42 -40 -86 -78 -98 -85 -12 -6 -59 -11 -104 -11 -45 0
-111 -5 -146 -11 -54 -9 -66 -15 -74 -35 -11 -31 -36 -40 -145 -53 -49 -6
-119 -20 -156 -31 -72 -22 -77 -29 -92 -121 -8 -45 -26 -61 -63 -57 -22 2 -33
13 -51 50 l-24 48 23 36 c22 36 22 37 4 50 -10 8 -22 14 -25 14 -12 0 -100
-62 -100 -70 0 -10 -49 -24 -70 -21 -8 2 -32 19 -52 39 -33 31 -40 34 -50 21
-7 -9 -26 -23 -42 -33 -16 -10 -33 -31 -39 -46 -15 -38 -107 -78 -143 -61 -36
16 -42 -10 -15 -73 11 -28 21 -56 21 -62 0 -5 -17 -28 -38 -50 -21 -21 -53
-60 -71 -86 -35 -52 -42 -55 -91 -34 -31 12 -37 11 -87 -15 -59 -31 -67 -30
-131 14 -64 43 -75 34 -67 -61 6 -65 4 -85 -10 -113 -22 -43 -32 -49 -67 -42
-29 6 -59 -19 -116 -96 -21 -28 -22 -32 -7 -54 14 -22 14 -31 -1 -101 -21 -94
-40 -120 -112 -152 -53 -23 -54 -25 -48 -56 9 -48 53 -104 117 -154 45 -34 61
-54 74 -91 30 -87 44 -113 84 -156 21 -23 45 -55 53 -71 16 -30 70 -56 121
-56 30 0 42 10 121 104 45 54 52 58 82 53 45 -8 107 -59 136 -113 23 -45 32
-52 43 -34 3 6 16 10 29 10 17 0 27 -11 42 -42 20 -43 32 -53 75 -62 19 -4 35
-23 63 -74 21 -38 59 -91 84 -118 46 -48 47 -50 49 -118 1 -39 6 -72 12 -74 5
-2 30 25 55 60 53 76 93 117 124 129 13 5 76 9 140 9 64 0 122 4 128 8 18 12
23 65 9 92 -21 37 -18 141 5 207 11 32 20 77 20 100 0 42 2 45 65 91 52 37 68
55 76 85 5 21 17 41 25 44 9 3 41 -4 71 -17 47 -19 58 -21 81 -10 15 7 58 20
95 30 71 19 86 17 159 -14 47 -20 92 -20 112 -1 18 18 13 58 -15 124 -55 127
16 229 160 230 64 1 115 45 135 116 17 58 29 66 123 80 28 4 56 18 80 41 21
18 46 34 56 34 9 0 47 18 83 40 74 45 103 50 111 20 8 -29 17 -25 47 18 33 49
34 91 1 122 -14 13 -25 28 -25 34 -1 32 -32 51 -92 56 -72 6 -94 26 -64 59 18
20 18 21 -31 66 -28 24 -56 59 -63 77 -23 57 -47 76 -107 84 -88 11 -93 18
-119 202 -4 26 -12 36 -38 47 -24 10 -37 25 -49 57 -23 59 -86 108 -140 108
-35 0 -47 -8 -116 -74z"/>
<path d="M14440 6119 c0 -27 -44 -147 -60 -163 -6 -6 -10 -20 -10 -33 0 -17
-10 -28 -37 -41 -21 -10 -37 -24 -35 -31 5 -23 -27 -48 -68 -55 -64 -10 -75
-42 -75 -208 l0 -136 -42 -39 -42 -39 6 -61 c9 -94 -2 -106 -124 -127 -54 -10
-156 -21 -225 -25 -103 -6 -131 -11 -148 -26 -28 -25 -25 -40 10 -55 33 -14
131 -6 195 16 22 8 48 14 57 14 23 0 41 -36 33 -67 -3 -14 -1 -77 6 -140 11
-113 11 -114 -11 -138 -13 -14 -31 -27 -41 -30 -10 -4 -15 -13 -12 -24 7 -27
-19 -43 -51 -31 -38 14 -41 13 -54 -15 -16 -35 -17 -35 27 -35 65 0 68 -57 3
-62 l-37 -3 -27 -94 c-27 -92 -43 -125 -57 -117 -4 3 -13 0 -21 -5 -13 -8 -12
-11 3 -23 20 -15 22 -43 5 -97 -6 -22 -9 -42 -5 -45 3 -3 39 4 81 15 41 11 82
18 90 15 26 -10 28 -41 6 -83 -24 -48 -25 -61 -5 -61 8 0 24 18 35 41 24 46
37 46 65 -1 32 -54 78 -98 82 -80 3 8 8 24 13 35 4 11 13 39 20 63 7 23 19 42
25 42 33 0 104 -35 140 -68 38 -35 99 -82 108 -82 2 0 18 30 35 68 21 47 33
90 38 146 l7 79 71 -6 72 -6 16 34 c12 27 12 35 2 39 -22 8 -4 46 21 46 17 0
30 12 47 42 13 23 28 43 33 45 6 2 25 -10 43 -27 18 -16 41 -30 51 -30 10 0
26 -9 36 -20 14 -16 21 -17 38 -8 16 8 23 7 34 -8 7 -10 13 -23 13 -29 0 -7 8
-20 19 -29 16 -15 19 -15 24 -1 4 8 4 29 0 46 -7 34 -52 69 -91 69 -46 0 -35
64 13 76 29 7 29 8 13 33 -18 30 -3 54 31 48 43 -9 53 9 29 54 -14 28 -17 45
-11 63 12 35 80 86 114 86 29 0 40 22 19 35 -20 12 -9 34 25 51 37 17 44 31
20 40 -21 9 -19 30 8 54 12 12 22 29 22 38 0 10 12 21 32 26 48 15 50 66 2 66
-10 0 -20 4 -24 9 -5 9 2 17 40 49 12 11 13 17 5 28 -9 10 -8 25 5 63 16 50
12 151 -6 151 -5 0 -6 -12 -3 -27 7 -41 -8 -58 -34 -42 -16 10 -24 11 -33 2
-9 -9 -17 -8 -35 4 -13 8 -43 21 -66 28 -29 8 -43 18 -42 29 2 19 -1 19 -27 5
-24 -12 -59 -3 -59 16 0 19 -27 26 -40 9 -20 -23 -44 -16 -80 21 -27 28 -30
36 -18 40 9 4 24 5 33 3 10 -2 20 2 22 9 3 8 -11 13 -39 15 -37 3 -42 6 -39
23 2 11 3 34 3 50 -1 17 -1 44 -1 61 0 17 -8 48 -16 68 -9 21 -13 46 -10 54 3
9 10 47 15 84 5 43 16 77 29 94 29 37 45 99 31 124 -14 26 -48 34 -84 20 -21
-8 -32 -7 -44 2 -8 7 -41 13 -74 13 -56 0 -58 -1 -58 -26z"/>
<path d="M9905 5831 c-14 -28 -51 -61 -67 -61 -5 0 -8 9 -8 19 0 33 -24 30
-90 -10 -36 -21 -72 -39 -80 -39 -9 0 -33 -15 -54 -32 -26 -22 -64 -40 -115
-53 l-76 -20 -18 -54 c-26 -78 -82 -120 -160 -121 -63 0 -106 -21 -136 -65
-26 -39 -25 -84 5 -145 10 -18 19 -55 22 -80 4 -41 1 -49 -19 -64 -31 -22 -48
-20 -136 10 l-75 26 -66 -18 c-37 -10 -77 -24 -90 -32 -21 -14 -29 -13 -78 7
-30 13 -60 21 -67 18 -7 -3 -19 -23 -26 -44 -9 -27 -23 -45 -45 -57 -71 -39
-89 -61 -92 -115 -2 -27 -10 -67 -19 -88 -25 -60 -31 -157 -11 -187 21 -33 21
-99 0 -117 -12 -10 -53 -14 -138 -16 -66 -1 -126 -2 -133 -2 -21 -1 -80 -60
-107 -105 -14 -24 -39 -55 -56 -69 -16 -14 -30 -33 -30 -42 0 -18 51 -51 92
-60 15 -4 39 -20 52 -36 24 -28 25 -34 19 -110 -6 -75 -4 -85 20 -133 15 -28
33 -67 41 -87 12 -32 20 -38 54 -44 23 -3 46 -13 53 -21 6 -8 24 -14 38 -14
17 0 38 -11 56 -30 36 -37 75 -39 130 -5 49 30 63 31 91 4 27 -26 84 -28 119
-5 29 19 31 35 9 78 -14 26 -15 47 -6 143 11 131 27 165 74 165 37 0 94 -33
101 -59 3 -13 17 -21 46 -26 22 -4 43 -11 46 -16 3 -5 -12 -35 -35 -68 -22
-33 -40 -65 -40 -71 0 -6 16 -26 35 -46 50 -49 46 -93 -12 -155 -23 -25 -24
-29 -10 -50 8 -13 20 -58 27 -99 l12 -75 60 0 c59 0 62 -2 98 -43 21 -23 43
-42 50 -42 6 0 30 -15 53 -34 44 -36 85 -51 102 -39 20 14 55 84 55 107 0 36
23 50 61 37 45 -15 45 -15 62 27 8 21 22 44 31 51 9 8 16 28 16 47 0 18 7 40
16 48 14 14 18 14 44 1 16 -8 38 -15 49 -15 11 0 35 -6 53 -14 18 -8 47 -20
64 -26 17 -6 36 -22 42 -36 18 -38 37 -29 62 28 31 73 38 176 15 212 -14 21
-17 45 -16 117 2 77 -1 94 -19 116 -40 51 -14 111 35 79 13 -9 27 -16 30 -16
3 0 17 24 30 53 14 29 36 64 50 77 24 22 26 23 42 7 10 -9 24 -35 33 -58 10
-29 26 -47 49 -60 40 -21 51 -35 51 -67 0 -15 9 -26 26 -32 38 -15 44 -13 44
15 0 73 94 155 179 155 42 0 49 11 47 72 -1 45 4 62 22 85 42 53 102 147 102
160 0 8 -12 13 -28 13 -59 0 -66 37 -22 107 17 26 30 50 30 53 0 4 -56 5 -124
2 -68 -2 -140 -2 -160 2 -47 9 -102 57 -116 102 -7 20 -32 54 -56 76 -24 22
-44 47 -44 55 0 7 -8 17 -17 20 -36 13 -123 76 -127 92 -40 129 -68 362 -48
397 7 12 29 22 64 29 l53 10 42 79 c24 44 53 90 65 103 19 20 19 23 4 23 -22
0 -58 83 -58 133 1 23 -4 37 -12 37 -6 0 -33 14 -59 30 -26 17 -50 30 -52 30
-3 0 -11 -13 -20 -29z"/>
<path d="M12386 5660 c-4 -23 -15 -35 -40 -45 -19 -8 -36 -20 -38 -27 -3 -7 2
-39 9 -71 15 -62 7 -105 -34 -195 -17 -35 -85 -82 -120 -82 -11 0 -26 -7 -33
-15 -18 -22 -52 -18 -91 10 l-34 26 -5 -57 c-5 -52 -8 -59 -37 -73 -34 -17
-43 -36 -43 -92 0 -94 -25 -123 -65 -79 -22 24 -41 26 -49 4 -13 -33 -5 -58
34 -104 22 -26 43 -62 46 -80 10 -46 50 -67 148 -75 159 -12 156 -9 186 -179
20 -108 47 -187 72 -202 5 -3 20 4 32 15 13 12 36 25 52 30 40 10 121 141 132
215 8 49 7 57 -13 78 -12 13 -34 46 -49 73 l-27 51 36 75 c27 58 46 83 84 111
l48 36 70 -13 c39 -8 97 -27 129 -43 48 -24 152 -59 325 -108 17 -5 63 -97 74
-151 3 -17 17 -39 30 -47 39 -26 103 -120 128 -189 13 -35 38 -85 56 -112 17
-26 47 -78 66 -115 19 -38 39 -71 45 -75 6 -4 25 2 42 12 25 15 35 30 46 73
13 52 13 54 -10 72 -19 14 -21 21 -12 35 6 10 22 20 35 23 21 5 28 20 56 110
l31 105 33 0 c47 0 49 23 2 27 -30 2 -39 7 -41 25 -2 12 2 32 8 44 11 19 18
21 57 15 38 -5 44 -3 42 12 -3 33 1 41 22 44 12 2 30 14 41 28 16 22 17 33 8
100 -5 41 -10 102 -10 136 0 74 -10 87 -55 68 -46 -19 -174 -33 -210 -23 -54
15 -122 65 -133 97 -9 26 -7 35 9 56 23 29 24 57 3 101 -17 36 -51 57 -127 76
-50 12 -97 2 -97 -21 0 -5 -8 -10 -17 -10 -9 0 -24 -7 -34 -16 -26 -23 -52 -4
-78 55 -22 53 -47 73 -84 71 -41 -4 -47 0 -69 48 -21 43 -26 47 -55 44 -24 -2
-39 4 -62 28 l-32 30 -29 -22 -29 -21 -58 23 c-32 12 -87 30 -121 39 -36 9
-68 24 -73 34 -8 13 -23 17 -63 17 -52 0 -54 -1 -60 -30z"/>
<path d="M12543 4957 c-27 -21 -52 -54 -74 -99 -30 -61 -31 -69 -19 -98 7 -18
28 -50 47 -72 18 -22 33 -46 33 -53 0 -48 -29 -131 -69 -197 -39 -64 -51 -77
-78 -83 -20 -3 -42 -18 -58 -39 -22 -29 -25 -43 -25 -113 0 -69 4 -88 31 -141
35 -71 84 -114 166 -146 45 -18 57 -27 56 -42 -2 -10 0 -40 3 -66 5 -39 10
-48 34 -58 45 -19 62 -5 101 79 l37 78 68 -8 c104 -13 112 -16 133 -57 18 -36
18 -38 1 -83 -24 -61 -17 -84 31 -103 34 -14 43 -14 67 -2 46 23 102 29 121
13 31 -28 59 -30 78 -6 37 44 45 48 104 55 42 5 67 13 80 27 26 28 24 37 -6
37 -40 0 -43 29 -7 59 25 20 32 34 32 60 0 22 10 47 27 69 26 35 30 60 18 120
-5 20 -3 38 5 47 9 11 4 29 -31 92 -24 43 -57 101 -74 128 -18 28 -39 73 -49
100 -20 62 -76 147 -116 177 -22 16 -35 38 -46 78 -25 86 -49 118 -97 131
-109 29 -237 73 -287 99 -51 26 -138 50 -178 50 -9 0 -36 -15 -59 -33z"/>
<path d="M7314 4849 c-32 -39 -67 -75 -79 -79 -32 -12 -127 8 -147 31 -17 20
-18 20 -96 -15 -53 -24 -94 -36 -125 -36 -24 0 -60 -7 -80 -15 -61 -25 -161
-119 -203 -189 -21 -36 -44 -66 -51 -66 -7 0 -28 14 -47 30 -32 29 -39 30 -85
24 -43 -5 -59 -2 -105 20 -73 36 -80 46 -67 92 13 47 -1 72 -59 109 -35 22
-51 25 -135 25 -66 0 -95 -4 -95 -12 0 -30 83 -421 102 -478 36 -112 49 -143
69 -168 10 -14 19 -31 19 -38 0 -8 5 -14 10 -14 6 0 10 -16 10 -35 0 -46 20
-84 59 -112 41 -31 65 -29 91 7 15 21 37 34 78 46 52 16 61 16 129 -1 40 -9
76 -22 80 -27 3 -6 -6 -22 -20 -34 -31 -26 -35 -54 -9 -54 24 -1 52 -24 52
-44 0 -9 12 -21 26 -26 14 -6 28 -19 31 -30 3 -11 9 -20 14 -20 17 0 9 -24
-17 -51 -30 -32 -24 -54 13 -44 42 10 73 36 73 60 0 40 48 42 80 3 8 -10 32
-19 53 -21 52 -6 70 -31 52 -75 -8 -18 -12 -39 -9 -47 8 -19 43 -30 57 -16 19
19 46 12 53 -14 3 -14 10 -25 16 -25 5 0 6 -9 3 -20 -9 -29 12 -50 50 -50 25
0 38 8 64 40 38 48 64 51 114 13 19 -16 43 -33 52 -38 15 -9 16 -14 6 -34 -13
-24 -22 -24 -88 -5 -21 6 -23 3 -23 -29 0 -20 5 -39 11 -43 6 -3 9 -14 6 -24
-4 -14 5 -23 35 -35 24 -9 38 -21 35 -28 -7 -19 16 -45 43 -49 21 -2 26 -9 28
-40 2 -20 9 -39 17 -42 20 -7 45 20 45 49 0 27 47 50 85 41 24 -6 25 -4 25 36
1 80 47 101 113 51 38 -29 46 -58 26 -95 -16 -30 -4 -33 33 -6 18 14 59 31 92
37 44 10 69 23 101 52 48 45 58 46 100 19 17 -11 36 -20 44 -20 28 0 89 61
111 112 20 46 21 61 15 137 -6 68 -12 91 -30 113 -20 24 -22 35 -18 92 7 77
-9 146 -44 200 -25 38 -25 43 -16 115 12 90 2 114 -55 137 -104 42 -117 59
-118 166 l-1 78 -51 54 c-28 30 -63 79 -78 110 -29 61 -55 86 -91 86 -17 0
-29 12 -48 50 -14 28 -28 50 -32 50 -3 0 -14 -7 -24 -16 -22 -20 -34 -13 -58
35 -28 54 -95 111 -130 111 -24 0 -39 -13 -87 -71z"/>
<path d="M11774 4866 c-3 -14 -4 -28 -1 -33 11 -19 -13 -53 -37 -53 -14 0 -36
-4 -50 -10 -24 -9 -26 -14 -26 -69 0 -53 -4 -65 -45 -124 -25 -37 -45 -73 -45
-82 0 -17 40 -21 68 -6 9 5 40 12 69 16 51 7 52 6 98 -36 91 -84 94 -124 14
-199 -27 -25 -49 -52 -49 -59 0 -6 13 -17 29 -22 36 -13 41 -32 25 -94 -11
-46 -11 -52 7 -71 24 -26 24 -45 -2 -78 -16 -21 -29 -26 -63 -26 -58 0 -83
-21 -101 -85 -15 -50 -15 -56 1 -86 9 -18 24 -56 34 -83 12 -38 26 -57 53 -75
46 -30 49 -63 10 -103 l-28 -29 19 -47 c10 -26 22 -65 28 -87 12 -47 23 -73
40 -97 10 -14 9 -23 -6 -48 -23 -39 -13 -50 18 -21 23 21 25 22 54 7 34 -17
62 -21 62 -8 0 5 18 18 40 31 l39 22 23 -23 c12 -13 41 -28 63 -33 27 -8 41
-17 43 -30 2 -11 30 -47 63 -80 52 -54 59 -65 59 -100 -1 -22 1 -87 4 -145 5
-97 7 -107 31 -127 29 -26 99 -47 129 -40 12 3 41 11 65 18 33 9 46 9 49 1 8
-26 49 -77 64 -80 9 -2 18 6 21 17 6 24 30 35 109 51 70 14 123 58 211 174 60
80 61 83 73 176 16 118 17 190 4 190 -6 0 -24 -10 -40 -22 -24 -17 -32 -19
-44 -9 -16 14 -9 40 21 69 20 21 16 28 -27 45 -26 10 -41 23 -45 39 -7 29 26
195 54 268 11 30 21 56 21 57 0 2 -16 9 -35 17 -44 19 -54 54 -32 114 15 39
15 47 1 73 -17 35 -38 44 -115 53 -65 7 -66 6 -110 -96 -28 -67 -55 -79 -112
-52 -36 17 -36 18 -39 83 l-3 66 -53 19 c-71 25 -139 88 -169 155 -19 42 -25
76 -28 155 -3 76 -7 103 -19 112 -9 6 -16 18 -16 26 0 8 -4 18 -9 24 -9 9 -33
117 -47 207 -4 28 -16 60 -29 75 -21 24 -30 27 -123 32 -117 6 -148 22 -172
88 -13 35 -71 112 -85 112 -2 0 -7 -11 -11 -24z"/>
<path d="M10663 4528 c-21 -29 -71 -101 -112 -160 -69 -102 -73 -111 -75 -165
-1 -57 -2 -58 -31 -61 -100 -9 -185 -75 -185 -144 0 -47 -15 -55 -64 -34 -28
11 -38 23 -42 46 -5 22 -20 40 -50 61 -32 22 -46 40 -54 69 -19 72 -43 63 -92
-34 -17 -34 -32 -62 -33 -64 -2 -2 -18 4 -35 13 -49 25 -59 6 -26 -50 26 -43
27 -51 20 -125 -6 -71 -4 -81 16 -110 19 -27 21 -39 16 -88 -4 -31 -11 -71
-17 -88 -8 -28 -6 -34 31 -74 23 -25 40 -53 40 -67 0 -39 26 -90 59 -114 17
-12 33 -31 37 -41 10 -31 222 -216 292 -254 37 -20 78 -44 92 -54 26 -18 118
-33 186 -31 49 2 66 -14 85 -83 12 -43 23 -56 89 -107 74 -58 75 -58 87 -36 7
12 12 46 13 76 0 64 21 97 51 80 14 -7 23 -5 39 11 11 11 20 26 20 33 0 19 57
51 135 77 39 12 77 31 86 42 9 12 24 18 38 16 18 -2 28 -17 47 -72 29 -84 30
-131 5 -173 -11 -17 -17 -34 -14 -37 15 -15 43 -4 63 24 24 34 59 39 77 11 16
-25 14 -132 -3 -151 -16 -18 -8 -32 27 -51 95 -51 109 -61 109 -78 0 -20 -27
-78 -40 -86 -5 -3 -17 -22 -26 -41 -20 -43 -12 -53 45 -61 33 -5 48 -1 81 21
22 14 48 26 59 26 11 0 33 11 48 24 24 21 28 31 27 73 -2 47 0 50 34 68 26 14
38 29 43 51 3 17 14 45 24 62 l19 32 126 1 c69 0 151 0 184 -1 l58 -1 -5 137
-6 137 -59 61 c-33 34 -62 69 -65 79 -4 11 -17 17 -39 17 -23 0 -38 8 -53 26
l-20 25 -45 -30 c-42 -28 -46 -29 -79 -15 -33 14 -37 13 -64 -6 -52 -39 -71
-4 -31 54 11 17 10 23 -11 48 -14 16 -25 42 -25 58 0 15 -9 47 -20 71 -26 59
-25 95 5 131 14 16 25 34 25 39 0 5 -18 21 -40 35 -30 20 -43 37 -51 68 -6 22
-20 60 -32 84 -19 39 -20 47 -8 104 11 56 11 63 -7 80 -12 12 -37 20 -70 23
-61 5 -72 10 -72 35 0 32 -47 60 -101 60 -45 0 -50 3 -78 43 -16 23 -48 61
-69 83 -57 61 -99 125 -106 161 -5 30 -3 33 29 39 35 6 57 23 33 25 -7 0 -34
0 -60 -1 -41 -1 -50 3 -75 30 -15 18 -41 38 -58 46 -16 8 -52 28 -80 44 -35
21 -64 30 -95 30 -30 0 -58 8 -85 25 -22 13 -43 25 -47 25 -3 0 -23 -23 -45
-52z"/>
<path d="M8747 4081 c-9 -16 -17 -43 -17 -61 0 -17 -5 -62 -11 -100 -10 -60
-10 -73 5 -94 24 -38 21 -82 -8 -101 -42 -28 -90 -30 -134 -5 l-40 23 -34 -21
c-19 -12 -52 -24 -73 -27 -36 -6 -43 -3 -74 29 -23 23 -44 36 -61 36 -14 0
-34 6 -45 14 -11 7 -34 16 -51 20 l-31 7 -6 -56 c-5 -48 -2 -61 19 -92 21 -32
24 -46 24 -136 0 -87 -3 -105 -25 -146 -45 -81 -124 -113 -177 -71 l-25 19
-44 -38 c-30 -28 -61 -44 -108 -57 -36 -9 -81 -28 -99 -42 -44 -34 -62 -19
-43 35 13 36 13 38 -18 65 -58 52 -106 27 -91 -48 4 -21 11 -52 15 -69 3 -16
2 -42 -4 -57 -9 -24 -15 -27 -52 -25 -66 2 -83 -40 -50 -126 7 -17 24 -34 44
-42 55 -23 62 -37 44 -90 -15 -43 -15 -47 6 -80 21 -33 25 -35 63 -30 52 7 62
-3 178 -174 90 -133 124 -167 192 -197 102 -43 122 -57 143 -101 14 -30 27
-43 39 -42 31 4 76 -13 103 -38 l27 -25 60 22 c33 12 66 20 73 18 7 -2 36 -55
65 -118 43 -96 56 -115 79 -122 15 -4 36 -15 47 -24 19 -18 61 -26 224 -43 50
-5 101 -14 112 -20 32 -17 65 -13 162 19 50 16 95 30 102 30 6 0 28 17 49 38
21 20 52 49 69 64 26 23 30 33 30 80 0 58 -27 127 -77 196 -17 23 -36 56 -44
74 -21 53 -144 180 -192 199 -41 16 -42 17 -49 76 -3 33 -13 76 -21 95 -16 38
-164 188 -197 200 -27 10 -25 42 5 103 13 28 25 56 25 62 0 12 16 18 64 25 11
2 23 16 29 33 5 17 16 38 24 47 14 15 13 18 -11 24 -29 7 -35 34 -11 54 14 12
14 15 -1 31 -14 16 -14 19 2 44 12 19 24 25 42 23 21 -3 27 3 38 36 l14 39
-49 -6 -49 -6 -17 91 c-9 50 -23 101 -31 113 -13 20 -11 25 21 62 45 53 45 84
0 134 -19 22 -35 44 -35 51 0 7 18 38 40 69 22 31 37 59 33 63 -3 3 -19 6 -34
6 -29 0 -59 23 -59 45 0 13 -57 45 -82 45 -7 0 -21 -13 -31 -29z"/>
<path d="M9565 3598 c-2 -7 -6 -30 -10 -51 -3 -21 -12 -40 -20 -43 -7 -3 -19
-20 -26 -37 -18 -47 -35 -57 -70 -45 -39 13 -59 4 -59 -27 0 -33 -34 -101 -55
-109 -39 -15 -76 -5 -114 29 -21 19 -45 35 -52 35 -8 0 -30 18 -50 41 -40 47
-52 46 -74 -8 -12 -29 -19 -35 -39 -31 -18 4 -27 -1 -35 -18 -6 -15 -7 -25 -1
-29 15 -10 12 -45 -5 -51 -24 -10 -18 -21 15 -27 31 -7 41 -31 16 -40 -8 -3
-20 -24 -27 -47 -12 -40 -18 -44 -73 -52 -11 -2 -23 -16 -29 -33 -5 -16 -16
-37 -23 -46 -30 -34 -16 -61 72 -138 104 -91 136 -141 143 -228 6 -65 6 -65
45 -78 51 -18 165 -139 208 -220 17 -33 41 -73 53 -90 37 -48 56 -106 58 -170
1 -64 -18 -109 -52 -120 -9 -3 -31 -20 -49 -38 l-31 -32 7 -137 c5 -76 11
-141 15 -145 4 -4 22 -1 40 7 37 15 135 14 155 -3 8 -6 24 -34 37 -63 20 -46
26 -52 61 -57 22 -4 49 -4 60 -1 29 8 90 -34 129 -87 44 -60 85 -82 143 -76
80 8 117 27 148 75 23 35 46 52 113 85 l84 42 33 90 c40 110 41 134 7 186 -15
23 -22 43 -17 48 31 27 130 40 362 46 212 6 246 4 261 -9 20 -18 159 -41 196
-32 43 11 33 50 -32 119 -31 34 -74 73 -97 88 -48 30 -111 97 -121 129 -7 23
17 60 40 60 21 0 95 -60 107 -86 7 -16 35 -37 71 -56 70 -35 121 -32 156 8 19
22 29 24 100 24 l79 0 56 48 c30 26 69 66 86 88 l30 41 -46 13 c-25 7 -48 19
-51 26 -3 7 7 33 20 56 54 91 65 115 59 125 -7 10 -40 30 -99 58 -34 16 -53
56 -35 78 14 18 22 98 11 119 -12 22 -45 24 -52 4 -10 -24 -54 -48 -77 -41
-24 8 -26 32 -4 64 22 31 21 90 -2 158 -21 61 -36 73 -62 50 -9 -9 -44 -25
-77 -37 -97 -35 -126 -53 -152 -93 -21 -33 -28 -38 -56 -35 l-32 3 -6 -65 c-6
-69 -22 -110 -43 -110 -7 0 -46 25 -87 56 -70 53 -97 89 -98 135 -1 9 -9 26
-20 37 -14 17 -25 21 -49 16 -41 -8 -160 14 -192 36 -14 10 -52 31 -86 48 -62
31 -294 226 -294 247 0 6 -19 30 -43 52 -38 37 -67 93 -67 132 0 14 -49 81
-59 81 -3 0 -14 -14 -23 -30 -22 -39 -53 -39 -72 -1 -9 16 -29 33 -48 40 -18
7 -45 19 -61 26 -15 8 -34 12 -42 9 -8 -4 -26 1 -40 10 -29 19 -34 20 -40 4z"/>
<path d="M11956 2690 c-43 -4 -51 -9 -67 -40 -11 -19 -19 -45 -19 -57 0 -16
-11 -28 -38 -42 -36 -18 -37 -21 -34 -60 4 -36 0 -45 -31 -76 -19 -19 -45 -35
-57 -35 -36 0 -104 -49 -135 -97 -15 -24 -56 -68 -92 -98 l-64 -55 -76 0 c-64
0 -80 -3 -99 -21 -13 -12 -41 -25 -64 -29 -56 -10 -151 34 -181 84 -38 64
-119 95 -119 45 0 -25 54 -84 112 -123 26 -18 74 -62 108 -98 51 -56 60 -72
60 -103 l0 -38 -105 5 c-84 5 -111 10 -140 28 -33 21 -44 22 -133 16 -53 -4
-169 -10 -257 -14 -99 -5 -170 -13 -187 -22 l-28 -13 20 -32 c12 -19 20 -50
20 -74 0 -43 -66 -231 -81 -231 -5 0 -39 -14 -76 -31 -57 -25 -74 -39 -106
-85 -37 -53 -38 -56 -23 -79 23 -34 20 -60 -8 -82 -21 -16 -23 -23 -18 -58 5
-29 13 -41 27 -43 11 -2 24 -8 29 -12 5 -5 33 11 63 35 30 25 72 50 93 56 72
22 133 -15 144 -86 20 -131 22 -135 77 -134 177 1 377 7 434 14 64 7 151 -2
198 -20 15 -6 17 0 17 56 1 67 13 108 75 249 59 133 100 165 197 154 52 -5 53
-5 69 28 12 26 23 34 47 36 27 3 35 -2 50 -28 13 -23 23 -30 41 -28 20 3 26
-4 38 -39 10 -29 30 -55 70 -87 30 -25 59 -46 63 -46 17 0 19 33 4 73 -26 71
-25 71 41 78 33 3 72 11 87 17 16 6 41 9 57 6 41 -8 101 14 134 49 27 29 28
29 48 11 14 -12 32 -17 56 -15 32 2 41 -3 92 -58 31 -34 61 -61 67 -61 6 0 19
9 29 20 20 22 92 28 125 10 40 -22 65 10 101 127 13 40 19 80 16 100 -3 18 -1
35 4 38 5 4 9 23 9 44 0 33 4 40 30 51 28 11 30 16 30 63 l0 50 58 -8 c31 -4
66 -7 77 -6 11 1 52 2 90 1 39 0 86 5 105 11 19 7 62 15 94 18 56 6 60 8 68
36 12 46 71 118 124 154 37 24 52 43 66 79 23 61 23 65 -9 100 -16 16 -39 48
-53 71 -25 42 -26 43 -140 71 -58 15 -223 23 -250 12 -17 -6 -39 -5 -73 5 -38
11 -56 12 -83 3 -30 -10 -39 -9 -78 14 -36 21 -43 29 -39 50 7 34 -13 66 -42
66 -18 0 -30 11 -47 40 -25 44 -43 49 -90 24 -28 -14 -38 -15 -86 -3 -29 7
-70 25 -89 41 -20 15 -48 29 -62 30 -50 4 -236 3 -285 -2z"/>
</g>
</svg>
